{
  "accessors": [
    {
      "bufferView": 3,
      "componentType": 5126,
      "count": 13764,
      "max": [
        14.589008331298828,
        25.274877548217773,
        6.34604024887085
      ],
      "min": [
        -14.588983535766602,
        0.11414850503206253,
        -1.2971704006195068
      ],
      "type": "VEC3"
    },
    {
      "bufferView": 3,
      "byteOffset": 165168,
      "componentType": 5126,
      "count": 13764,
      "max": [
        0.9998838305473328,
        0.9999976754188538,
        1.0
      ],
      "min": [
        -0.9998838305473328,
        -0.9999976754188538,
        -0.9999142289161682
      ],
      "type": "VEC3"
    },
    {
      "bufferView": 4,
      "componentType": 5126,
      "count": 13764,
      "max": [
        1.0,
        1.0,
        0.9999976754188538,
        1.0
      ],
      "min": [
        -1.0,
        -0.9999710321426392,
        -0.9999780654907227,
        -1.0
      ],
      "type": "VEC4"
    },
    {
      "bufferView": 2,
      "componentType": 5126,
      "count": 13764,
      "max": [
        0.964949369430542,
        0.9861656427383423
      ],
      "min": [
        0.0020891199819743633,
        0.002115309238433838
      ],
      "type": "VEC2"
    },
    {
      "bufferView": 1,
      "componentType": 5125,
      "count": 48630,
      "type": "SCALAR"
    },
    {
      "bufferView": 5,
      "componentType": 5126,
      "count": 213,
      "max": [
        100.0,
        0.9929738640785217,
        0.6974275708198547,
        0.0,
        0.69742751121521,
        100.0,
        1.0000001192092896,
        0.0,
        0.9929738640785217,
        1.0000003576278687,
        100.0,
        0.0,
        12.86598014831543,
        24.627639770507813,
        8.811049461364746,
        1.0
      ],
      "min": [
        -1.0,
        -0.9929739236831665,
        -0.69742751121521,
        0.0,
        -0.6974275708198547,
        -0.9996715784072876,
        -0.521234929561615,
        0.0,
        -0.992973804473877,
        -0.9557619690895081,
        -0.9996711611747742,
        0.0,
        -12.865981101989746,
        -23.218984603881836,
        -21.769424438476563,
        1.0
      ],
      "type": "MAT4"
    },
    {
      "bufferView": 0,
      "componentType": 5123,
      "count": 13764,
      "type": "VEC4"
    },
    {
      "bufferView": 4,
      "byteOffset": 220224,
      "componentType": 5126,
      "count": 13764,
      "max": [
        1.0,
        0.5,
        0.30022817850112915,
        0.24449563026428223
      ],
      "min": [
        0.25550439953804016,
        0.0,
        0.0,
        0.0
      ],
      "type": "VEC4"
    }
  ],
  "asset": {
    "extras": {
      "author": "Guilherme Navarro (https://sketchfab.com/guinavarro.al)",
      "license": "CC-BY-4.0 (http://creativecommons.org/licenses/by/4.0/)",
      "source": "https://sketchfab.com/3d-models/gargamel-smurfs-2025-4b34d89462194b51a18d7e6a594657b7",
      "title": "Gargamel (Smurfs 2025)"
    },
    "generator": "Sketchfab-16.74.0",
    "version": "2.0"
  },
  "bufferViews": [
    {
      "buffer": 0,
      "byteLength": 110112,
      "byteStride": 8,
      "name": "shortBufferViews",
      "target": 34962
    },
    {
      "buffer": 0,
      "byteLength": 194520,
      "byteOffset": 110112,
      "name": "floatBufferViews",
      "target": 34963
    },
    {
      "buffer": 0,
      "byteLength": 110112,
      "byteOffset": 304632,
      "byteStride": 8,
      "name": "floatBufferViews",
      "target": 34962
    },
    {
      "buffer": 0,
      "byteLength": 330336,
      "byteOffset": 414744,
      "byteStride": 12,
      "name": "floatBufferViews",
      "target": 34962
    },
    {
      "buffer": 0,
      "byteLength": 440448,
      "byteOffset": 745080,
      "byteStride": 16,
      "name": "floatBufferViews",
      "target": 34962
    },
    {
      "buffer": 0,
      "byteLength": 13632,
      "byteOffset": 1185528,
      "name": "floatBufferViews"
    }
  ],
  "buffers": [
    {
      "byteLength": 1199160,
      "uri": "scene.bin"
    }
  ],
  "extensionsUsed": [
    "KHR_materials_specular"
  ],
  "images": [
    {
      "uri": "textures/gargamel_baseColor.png"
    },
    {
      "uri": "textures/gargamel_metallicRoughness.png"
    },
    {
      "uri": "textures/gargamel_normal.png"
    }
  ],
  "materials": [
    {
      "doubleSided": true,
      "extensions": {
        "KHR_materials_specular": {
          "specularColorFactor": [
            1.0,
            1.0,
            1.0
          ],
          "specularFactor": 1.0
        }
      },
      "name": "gargamel",
      "normalTexture": {
        "index": 2
      },
      "pbrMetallicRoughness": {
        "baseColorTexture": {
          "index": 0
        },
        "metallicRoughnessTexture": {
          "index": 1
        },
        "roughnessFactor": 0.6413700909138329
      }
    }
  ],
  "meshes": [
    {
      "name": "Gargamel_mesh_gargamel_0",
      "primitives": [
        {
          "attributes": {
            "JOINTS_0": 6,
            "NORMAL": 1,
            "POSITION": 0,
            "TANGENT": 2,
            "TEXCOORD_0": 3,
            "WEIGHTS_0": 7
          },
          "indices": 4,
          "material": 0,
          "mode": 4
        }
      ]
    }
  ],
  "nodes": [
    {
      "children": [
        1
      ],
      "matrix": [
        1.0,
        0.0,
        0.0,
        0.0,
        0.0,
        2.220446049250313e-16,
        -1.0,
        0.0,
        0.0,
        1.0,
        2.220446049250313e-16,
        0.0,
        0.0,
        0.0,
        0.0,
        1.0
      ],
      "name": "Sketchfab_model"
    },
    {
      "children": [
        2
      ],
      "matrix": [
        0.009999999776482582,
        0.0,
        0.0,
        0.0,
        0.0,
        0.0,
        0.009999999776482582,
        0.0,
        0.0,
        -0.009999999776482582,
        0.0,
        0.0,
        0.0,
        0.0,
        0.0,
        1.0
      ],
      "name": "gargamel.fbx"
    },
    {
      "children": [
        3
      ],
      "name": "RootNode"
    },
    {
      "children": [
        4
      ],
      "matrix": [
        100.0,
        0.0,
        0.0,
        0.0,
        0.0,
        -1.629206793918314e-05,
        -99.99999999999868,
        0.0,
        0.0,
        99.99999999999868,
        -1.629206793918314e-05,
        0.0,
        0.0,
        0.0,
        0.0,
        1.0
      ],
      "name": "Gargamel"
    },
    {
      "children": [
        5
      ],
      "matrix": [
        1.0,
        0.0,
        0.0,
        0.0,
        0.0,
        1.0,
        -2.646977960169688e-23,
        0.0,
        0.0,
        2.646977960169688e-23,
        1.0,
        0.0,
        0.0,
        0.0,
        0.0,
        1.0
      ],
      "name": "Gargamel_arm"
    },
    {
      "children": [
        6,
        220,
        219
      ],
      "name": "Object_5"
    },
    {
      "children": [
        7
      ],
      "name": "_rootJoint"
    },
    {
      "children": [
        8
      ],
      "name": "root_02_02",
      "rotation": [
        -7.095791687561359e-08,
        -0.0,
        0.0,
        1.0
      ],
      "translation": [
        0.0,
        -1.0587911840678754e-22,
        4.453294277191162
      ]
    },
    {
      "children": [
        9
      ],
      "name": "rotor_03_03",
      "rotation": [
        0.70710688829422,
        0.0,
        0.0,
        0.7071067094802856
      ],
      "translation": [
        0.0,
        -1.0827324009154288e-14,
        -4.76837158203125e-07
      ]
    },
    {
      "children": [
        10,
        211,
        215
      ],
      "name": "hips_04_04",
      "rotation": [
        -4.7127986846362546e-08,
        -0.0,
        0.0,
        1.0
      ],
      "scale": [
        1.0,
        0.9999999403953552,
        1.0
      ],
      "translation": [
        0.0,
        6.129683494567871,
        0.2203175127506256
      ]
    },
    {
      "children": [
        11
      ],
      "name": "spine_05_05",
      "rotation": [
        0.04614722728729248,
        -1.160272877989433e-16,
        -1.160272480942739e-16,
        0.9989347457885742
      ],
      "translation": [
        -3.7574493532700884e-21,
        3.163638114929199,
        -1.083183320815806e-09
      ]
    },
    {
      "children": [
        12,
        157,
        181,
        184,
        208
      ],
      "name": "chest_06_06",
      "rotation": [
        0.13021714985370636,
        3.0958203777077396e-21,
        -2.8911163474977744e-17,
        0.991485595703125
      ],
      "scale": [
        1.0,
        1.0,
        0.9999999403953552
      ],
      "translation": [
        -4.367513634279986e-21,
        2.697601079940796,
        -1.2695789337158203e-05
      ]
    },
    {
      "children": [
        13
      ],
      "name": "neck_07_07",
      "rotation": [
        0.09724322706460953,
        -1.3633624123318006e-13,
        -9.503514511802202e-14,
        0.9952606558799744
      ],
      "translation": [
        2.2948461707306134e-13,
        3.3376314640045166,
        4.76837158203125e-05
      ]
    },
    {
      "children": [
        14,
        16,
        18,
        20,
        22,
        24,
        26,
        28,
        30,
        32,
        34,
        36,
        38,
        40,
        42,
        44,
        46,
        48,
        50,
        52,
        54,
        56,
        58,
        60,
        62,
        64,
        66,
        68,
        70,
        72,
        74,
        76,
        78,
        80,
        82,
        84,
        86,
        88,
        90,
        92,
        94,
        96,
        98,
        100,
        102,
        104,
        106,
        108,
        110,
        112,
        114,
        116,
        118,
        120,
        122,
        124,
        126,
        128,
        130,
        132,
        134,
        136,
        138,
        140,
        142,
        144,
        146,
        148,
        150,
        152
      ],
      "name": "head_08_08",
      "rotation": [
        8.471351264915938e-08,
        0.8721338510513306,
        0.48926734924316406,
        -3.904256828946018e-08
      ],
      "scale": [
        1.0,
        1.000000238418579,
        1.0
      ],
      "translation": [
        -2.347210425156232e-13,
        1.1962615251541138,
        0.7131690979003906
      ]
    },
    {
      "children": [
        15
      ],
      "name": "eyelid.L_09_09",
      "rotation": [
        -1.415462378417942e-07,
        -0.706874430179596,
        0.7071067690849304,
        -0.018126914277672768
      ],
      "scale": [
        0.9999999403953552,
        0.9999998807907104,
        0.9999998807907104
      ],
      "translation": [
        -0.04829389974474907,
        2.3535139560699463,
        3.199218988418579
      ]
    },
    {
      "name": "eyelid.L_09_end_0127",
      "rotation": [
        3.6912107654566307e-20,
        1.734723475976807e-18,
        -2.811266369580377e-19,
        1.0
      ],
      "translation": [
        0.0,
        0.6002568006515503,
        0.0
      ]
    },
    {
      "children": [
        17
      ],
      "name": "eyelid.001.L_010_010",
      "rotation": [
        -1.3759367334387207e-07,
        -0.706874430179596,
        0.7071067690849304,
        -0.01812691055238247
      ],
      "scale": [
        0.9999999403953552,
        0.9999998807907104,
        0.9999998807907104
      ],
      "translation": [
        -0.606615424156189,
        2.4879813194274902,
        3.2243406772613525
      ]
    },
    {
      "name": "eyelid.001.L_010_end_0128",
      "rotation": [
        -1.5085127395007055e-19,
        -1.734723475976807e-18,
        1.1440559276340758e-18,
        1.0
      ],
      "translation": [
        2.7755575615628914e-17,
        0.6002568006515503,
        8.881784197001252e-16
      ]
    },
    {
      "children": [
        19
      ],
      "name": "eyelid.002.L_011_011",
      "rotation": [
        -1.3759367334387207e-07,
        -0.706874430179596,
        0.7071067690849304,
        -0.01812691055238247
      ],
      "scale": [
        0.9999999403953552,
        0.9999998807907104,
        0.9999998807907104
      ],
      "translation": [
        -1.3223665952682495,
        2.2586278915405273,
        3.189375162124634
      ]
    },
    {
      "name": "eyelid.002.L_011_end_0129",
      "rotation": [
        -1.5085127395007055e-19,
        -1.734723475976807e-18,
        1.1440559276340758e-18,
        1.0
      ],
      "translation": [
        -1.1102230246251565e-16,
        0.6002568006515503,
        -8.881784197001252e-16
      ]
    },
    {
      "children": [
        21
      ],
      "name": "eyelid.003.L_012_012",
      "rotation": [
        -1.3759367334387207e-07,
        -0.706874430179596,
        0.7071067690849304,
        -0.01812691055238247
      ],
      "scale": [
        0.9999999403953552,
        0.9999998807907104,
        0.9999998807907104
      ],
      "translation": [
        -1.5721431970596313,
        1.8780547380447388,
        3.1207752227783203
      ]
    },
    {
      "name": "eyelid.003.L_012_end_0130",
      "rotation": [
        -1.5085127395007055e-19,
        -1.734723475976807e-18,
        1.1440559276340758e-18,
        1.0
      ],
      "translation": [
        0.0,
        0.6002568006515503,
        -8.881784197001252e-16
      ]
    },
    {
      "children": [
        23
      ],
      "name": "eyelid.004.L_013_013",
      "rotation": [
        -1.3759367334387207e-07,
        -0.706874430179596,
        0.7071067690849304,
        -0.01812691055238247
      ],
      "scale": [
        0.9999999403953552,
        0.9999998807907104,
        0.9999998807907104
      ],
      "translation": [
        -1.503814458847046,
        2.007612466812134,
        2.8961143493652344
      ]
    },
    {
      "name": "eyelid.004.L_013_end_0131",
      "rotation": [
        -1.5085127395007055e-19,
        -1.734723475976807e-18,
        1.1440559276340758e-18,
        1.0
      ],
      "translation": [
        0.0,
        0.6002568006515503,
        -8.881784197001252e-16
      ]
    },
    {
      "children": [
        25
      ],
      "name": "eyelid.005.L_014_014",
      "rotation": [
        -1.415462378417942e-07,
        -0.706874430179596,
        0.7071067690849304,
        -0.018126914277672768
      ],
      "scale": [
        0.9999999403953552,
        0.9999998807907104,
        0.9999998807907104
      ],
      "translation": [
        -0.09957536309957504,
        2.2827112674713135,
        2.9080069065093994
      ]
    },
    {
      "name": "eyelid.005.L_014_end_0132",
      "rotation": [
        3.6912107654566307e-20,
        1.734723475976807e-18,
        -2.811266369580377e-19,
        1.0
      ],
      "translation": [
        0.0,
        0.6002568006515503,
        0.0
      ]
    },
    {
      "children": [
        27
      ],
      "name": "eyelid.006.L_015_015",
      "rotation": [
        -1.3759367334387207e-07,
        -0.706874430179596,
        0.7071067690849304,
        -0.01812691055238247
      ],
      "scale": [
        0.9999999403953552,
        0.9999998807907104,
        0.9999998807907104
      ],
      "translation": [
        -0.45881786942481995,
        2.326828718185425,
        2.7925493717193604
      ]
    },
    {
      "name": "eyelid.006.L_015_end_0133",
      "rotation": [
        -1.5085127395007055e-19,
        -1.734723475976807e-18,
        1.1440559276340758e-18,
        1.0
      ],
      "translation": [
        5.551115123125783e-17,
        0.6002568006515503,
        8.881784197001252e-16
      ]
    },
    {
      "children": [
        29
      ],
      "name": "eyelid.007.L_016_016",
      "rotation": [
        -1.3759367334387207e-07,
        -0.706874430179596,
        0.7071067690849304,
        -0.01812691055238247
      ],
      "scale": [
        0.9999999403953552,
        0.9999998807907104,
        0.9999998807907104
      ],
      "translation": [
        -1.1512234210968018,
        2.241682529449463,
        2.8054678440093994
      ]
    },
    {
      "name": "eyelid.007.L_016_end_0134",
      "rotation": [
        -1.5085127395007055e-19,
        -1.734723475976807e-18,
        1.1440559276340758e-18,
        1.0
      ],
      "translation": [
        5.551115123125783e-17,
        0.6002568006515503,
        -8.881784197001252e-16
      ]
    },
    {
      "children": [
        31
      ],
      "name": "nose_017_017",
      "rotation": [
        -1.408874794606163e-07,
        -0.706874430179596,
        0.7071067690849304,
        -0.018126914277672768
      ],
      "scale": [
        0.9999999403953552,
        0.9999998807907104,
        0.9999998807907104
      ],
      "translation": [
        -6.659289510935196e-07,
        2.4430181980133057,
        3.6835100650787354
      ]
    },
    {
      "name": "nose_017_end_0135",
      "rotation": [
        3.5542296560178493e-20,
        -7.352045796693956e-38,
        -2.0685342801241128e-18,
        1.0
      ],
      "translation": [
        0.0,
        0.6002568006515503,
        -8.881784197001252e-16
      ]
    },
    {
      "children": [
        33
      ],
      "name": "nose.001_018_018",
      "rotation": [
        -1.402287210794384e-07,
        -0.706874430179596,
        0.7071067690849304,
        -0.018126914277672768
      ],
      "scale": [
        0.9999999403953552,
        0.9999998807907104,
        0.9999998807907104
      ],
      "translation": [
        -1.1058651807616116e-06,
        2.5341756343841553,
        3.219726800918579
      ]
    },
    {
      "name": "nose.001_018_end_0136",
      "rotation": [
        -2.531834418902307e-20,
        -1.734723475976807e-18,
        3.0864238644430787e-18,
        1.0
      ],
      "translation": [
        0.0,
        0.6002568006515503,
        0.0
      ]
    },
    {
      "children": [
        35
      ],
      "name": "nose.002_019_019",
      "rotation": [
        -1.382524459359047e-07,
        -0.706874430179596,
        0.7071067690849304,
        -0.01812691241502762
      ],
      "scale": [
        0.9999999403953552,
        0.9999998807907104,
        0.9999998807907104
      ],
      "translation": [
        1.3185989473640802e-06,
        2.8190805912017822,
        2.9086248874664307
      ]
    },
    {
      "name": "nose.002_019_end_0137",
      "rotation": [
        6.027168815306381e-20,
        -2.4155221953546787e-37,
        -4.007722741453615e-18,
        1.0
      ],
      "translation": [
        0.0,
        0.6002568006515503,
        -8.881784197001252e-16
      ]
    },
    {
      "children": [
        37
      ],
      "name": "nose.003_020_020",
      "rotation": [
        -1.402287210794384e-07,
        -0.706874430179596,
        0.7071067690849304,
        -0.018126914277672768
      ],
      "scale": [
        0.9999999403953552,
        0.9999998807907104,
        0.9999998807907104
      ],
      "translation": [
        -1.2386446996970335e-06,
        3.3428242206573486,
        2.3633196353912354
      ]
    },
    {
      "name": "nose.003_020_end_0138",
      "rotation": [
        -2.531834418902307e-20,
        -1.734723475976807e-18,
        3.0864238644430787e-18,
        1.0
      ],
      "translation": [
        -1.1102230246251565e-16,
        0.6002568006515503,
        0.0
      ]
    },
    {
      "children": [
        39
      ],
      "name": "nose.004_021_021",
      "rotation": [
        -1.402287210794384e-07,
        -0.706874430179596,
        0.7071067690849304,
        -0.018126914277672768
      ],
      "scale": [
        0.9999999403953552,
        0.9999998807907104,
        0.9999998807907104
      ],
      "translation": [
        4.685775252255553e-07,
        3.4702417850494385,
        1.816375970840454
      ]
    },
    {
      "name": "nose.004_021_end_0139",
      "rotation": [
        -2.531834418902307e-20,
        -1.734723475976807e-18,
        3.0864238644430787e-18,
        1.0
      ],
      "translation": [
        0.0,
        0.6002568006515503,
        -8.881784197001252e-16
      ]
    },
    {
      "children": [
        41
      ],
      "name": "nose.005_022_022",
      "rotation": [
        -1.382524459359047e-07,
        -0.706874430179596,
        0.7071067690849304,
        -0.01812691241502762
      ],
      "scale": [
        0.9999999403953552,
        1.0000001192092896,
        0.9999999403953552
      ],
      "translation": [
        -1.1216909001632303e-07,
        3.45961594581604,
        1.324087381362915
      ]
    },
    {
      "name": "nose.005_022_end_0140",
      "rotation": [
        8.880611056369305e-21,
        3.469446951953614e-18,
        1.3576651878633914e-18,
        1.0
      ],
      "translation": [
        0.0,
        0.6002568006515503,
        8.881784197001252e-16
      ]
    },
    {
      "children": [
        43
      ],
      "name": "nose.006_023_023",
      "rotation": [
        -1.408874794606163e-07,
        -0.706874430179596,
        0.7071067690849304,
        -0.018126914277672768
      ],
      "scale": [
        0.9999999403953552,
        0.9999998807907104,
        0.9999998807907104
      ],
      "translation": [
        6.614024528062146e-07,
        3.232043504714966,
        0.9930898547172546
      ]
    },
    {
      "name": "nose.006_023_end_0141",
      "rotation": [
        3.5542296560178493e-20,
        -7.352045796693956e-38,
        -2.0685342801241128e-18,
        1.0
      ],
      "translation": [
        -1.1102230246251565e-16,
        0.6002568006515503,
        8.881784197001252e-16
      ]
    },
    {
      "children": [
        45
      ],
      "name": "eyecore.L_024_024",
      "rotation": [
        -4.4105028962349024e-08,
        -0.706874430179596,
        0.7071067690849304,
        -0.01812698505818844
      ],
      "scale": [
        0.9999999403953552,
        0.9999998807907104,
        0.9999998807907104
      ],
      "translation": [
        -0.14908567070960999,
        2.302847146987915,
        3.670898675918579
      ]
    },
    {
      "name": "eyecore.L_024_end_0142",
      "rotation": [
        -4.939260873676639e-20,
        2.398619172758607e-37,
        -4.8562309653304036e-18,
        1.0
      ],
      "translation": [
        0.0,
        0.6002568006515503,
        0.0
      ]
    },
    {
      "children": [
        47
      ],
      "name": "eyecore.001.L_025_025",
      "rotation": [
        -1.3759367334387207e-07,
        -0.706874430179596,
        0.7071067690849304,
        -0.01812691055238247
      ],
      "scale": [
        0.9999999403953552,
        0.9999998807907104,
        0.9999998807907104
      ],
      "translation": [
        -0.6072003841400146,
        2.338620662689209,
        3.8037893772125244
      ]
    },
    {
      "name": "eyecore.001.L_025_end_0143",
      "rotation": [
        -1.5085127395007055e-19,
        -1.734723475976807e-18,
        1.1440559276340758e-18,
        1.0
      ],
      "translation": [
        2.7755575615628914e-17,
        0.6002568006515503,
        0.0
      ]
    },
    {
      "children": [
        49
      ],
      "name": "eyecore.002.L_026_026",
      "rotation": [
        -1.2183882347471808e-07,
        -0.7068744897842407,
        0.7071067690849304,
        -0.018127065151929855
      ],
      "scale": [
        1.0,
        0.9999998807907104,
        0.9999999403953552
      ],
      "translation": [
        -1.3283611536026,
        2.1174702644348145,
        3.6649515628814697
      ]
    },
    {
      "name": "eyecore.002.L_026_end_0144",
      "rotation": [
        2.845501307182415e-20,
        1.5749441190115112e-37,
        5.534856557313808e-18,
        1.0
      ],
      "translation": [
        0.0,
        0.6002568006515503,
        0.0
      ]
    },
    {
      "children": [
        51
      ],
      "name": "eyecore.003.L_027_027",
      "rotation": [
        -1.3759367334387207e-07,
        -0.706874430179596,
        0.7071067690849304,
        -0.01812691055238247
      ],
      "scale": [
        0.9999999403953552,
        0.9999998807907104,
        0.9999998807907104
      ],
      "translation": [
        -1.5949581861495972,
        1.7696195840835571,
        3.3971176147460938
      ]
    },
    {
      "name": "eyecore.003.L_027_end_0145",
      "rotation": [
        -1.5085127395007055e-19,
        -1.734723475976807e-18,
        1.1440559276340758e-18,
        1.0
      ],
      "translation": [
        1.1102230246251565e-16,
        0.6002568006515503,
        -8.881784197001252e-16
      ]
    },
    {
      "children": [
        53
      ],
      "name": "brow.L_028_028",
      "rotation": [
        -1.3759367334387207e-07,
        -0.706874430179596,
        0.7071067690849304,
        -0.01812691055238247
      ],
      "scale": [
        0.9999999403953552,
        0.9999998807907104,
        0.9999998807907104
      ],
      "translation": [
        -0.4470493197441101,
        2.594160795211792,
        4.411128997802734
      ]
    },
    {
      "name": "brow.L_028_end_0146",
      "rotation": [
        -1.5085127395007055e-19,
        -1.734723475976807e-18,
        1.1440559276340758e-18,
        1.0
      ],
      "translation": [
        5.551115123125783e-17,
        0.6002568006515503,
        0.0
      ]
    },
    {
      "children": [
        55
      ],
      "name": "brow.001.L_029_029",
      "rotation": [
        -1.3759367334387207e-07,
        -0.706874430179596,
        0.7071067690849304,
        -0.01812691055238247
      ],
      "scale": [
        0.9999999403953552,
        0.9999998807907104,
        0.9999998807907104
      ],
      "translation": [
        -1.0285890102386475,
        2.374650478363037,
        4.321815490722656
      ]
    },
    {
      "name": "brow.001.L_029_end_0147",
      "rotation": [
        -1.5085127395007055e-19,
        -1.734723475976807e-18,
        1.1440559276340758e-18,
        1.0
      ],
      "translation": [
        0.0,
        0.6002568006515503,
        0.0
      ]
    },
    {
      "children": [
        57
      ],
      "name": "brow.002.L_030_030",
      "rotation": [
        -1.2183882347471808e-07,
        -0.7068744897842407,
        0.7071067690849304,
        -0.018127065151929855
      ],
      "scale": [
        1.0,
        0.9999998807907104,
        0.9999999403953552
      ],
      "translation": [
        -1.7863110303878784,
        1.8182103633880615,
        3.94775390625
      ]
    },
    {
      "name": "brow.002.L_030_end_0148",
      "rotation": [
        2.845501307182415e-20,
        1.5749441190115112e-37,
        5.534856557313808e-18,
        1.0
      ],
      "translation": [
        0.0,
        0.6002568006515503,
        -8.881784197001252e-16
      ]
    },
    {
      "children": [
        59
      ],
      "name": "cheek.L_031_031",
      "rotation": [
        -6.776502914362936e-08,
        -0.706874430179596,
        0.7071067690849304,
        -0.018126841634511948
      ],
      "scale": [
        1.0,
        0.9999997615814209,
        0.9999998807907104
      ],
      "translation": [
        -2.2889857292175293,
        1.4163850545883179,
        3.298067092895508
      ]
    },
    {
      "name": "cheek.L_031_end_0149",
      "rotation": [
        1.2150952326158955e-19,
        5.204170427930421e-18,
        -2.176463565679113e-18,
        1.0
      ],
      "translation": [
        -2.220446049250313e-16,
        0.6002568006515503,
        -8.881784197001252e-16
      ]
    },
    {
      "children": [
        61
      ],
      "name": "cheek.001.L_032_032",
      "rotation": [
        -6.776502914362936e-08,
        -0.706874430179596,
        0.7071067690849304,
        -0.018126841634511948
      ],
      "scale": [
        1.0,
        0.9999997615814209,
        0.9999998807907104
      ],
      "translation": [
        -2.256063938140869,
        1.5795120000839233,
        2.6372032165527344
      ]
    },
    {
      "name": "cheek.001.L_032_end_0150",
      "rotation": [
        1.2150952326158955e-19,
        5.204170427930421e-18,
        -2.176463565679113e-18,
        1.0
      ],
      "translation": [
        -2.220446049250313e-16,
        0.6002568006515503,
        0.0
      ]
    },
    {
      "children": [
        63
      ],
      "name": "cheek.002.L_033_033",
      "rotation": [
        -1.3759367334387207e-07,
        -0.706874430179596,
        0.7071067690849304,
        -0.01812691055238247
      ],
      "scale": [
        0.9999999403953552,
        0.9999998807907104,
        0.9999998807907104
      ],
      "translation": [
        -1.588007926940918,
        2.1972968578338623,
        2.2349417209625244
      ]
    },
    {
      "name": "cheek.002.L_033_end_0151",
      "rotation": [
        -1.5085127395007055e-19,
        -1.734723475976807e-18,
        1.1440559276340758e-18,
        1.0
      ],
      "translation": [
        0.0,
        0.6002568006515503,
        0.0
      ]
    },
    {
      "children": [
        65
      ],
      "name": "cheek.003.L_034_034",
      "rotation": [
        -8.890076230727573e-08,
        -0.706874430179596,
        0.7071067690849304,
        -0.01812703162431717
      ],
      "scale": [
        0.9999999403953552,
        0.9999998807907104,
        0.9999999403953552
      ],
      "translation": [
        -0.8133301734924316,
        2.366370677947998,
        2.1697256565093994
      ]
    },
    {
      "name": "cheek.003.L_034_end_0152",
      "rotation": [
        6.617444900424221e-23,
        1.734723475976807e-18,
        2.5294043690577795e-18,
        1.0
      ],
      "translation": [
        8.326672684688674e-17,
        0.6002568006515503,
        0.0
      ]
    },
    {
      "children": [
        67
      ],
      "name": "mounth.L_035_035",
      "rotation": [
        -4.081122284560479e-08,
        -0.706874430179596,
        0.7071067690849304,
        -0.01812698319554329
      ],
      "scale": [
        0.9999999403953552,
        0.9999998211860657,
        0.9999998807907104
      ],
      "translation": [
        -0.1270088255405426,
        2.5190508365631104,
        0.8879873156547546
      ]
    },
    {
      "name": "mounth.L_035_end_0153",
      "rotation": [
        2.2396080520995735e-19,
        -2.729589278658311e-37,
        -1.218779908654513e-18,
        1.0
      ],
      "translation": [
        1.1102230246251565e-16,
        0.6002568006515503,
        -8.881784197001252e-16
      ]
    },
    {
      "children": [
        69
      ],
      "name": "mounth.001.L_036_036",
      "rotation": [
        -1.3759367334387207e-07,
        -0.706874430179596,
        0.7071067690849304,
        -0.01812691055238247
      ],
      "scale": [
        0.9999999403953552,
        0.9999998807907104,
        0.9999998807907104
      ],
      "translation": [
        -0.5234764814376831,
        2.347118854522705,
        0.8842965364456177
      ]
    },
    {
      "name": "mounth.001.L_036_end_0154",
      "rotation": [
        -1.5085127395007055e-19,
        -1.734723475976807e-18,
        1.1440559276340758e-18,
        1.0
      ],
      "translation": [
        1.3877787807814457e-16,
        0.6002568006515503,
        8.881784197001252e-16
      ]
    },
    {
      "children": [
        71
      ],
      "name": "mounth.002.L_037_037",
      "rotation": [
        -1.3759367334387207e-07,
        -0.706874430179596,
        0.7071067690849304,
        -0.01812691055238247
      ],
      "scale": [
        0.9999999403953552,
        0.9999998807907104,
        0.9999998807907104
      ],
      "translation": [
        -0.9521635174751282,
        2.092911720275879,
        0.8950635194778442
      ]
    },
    {
      "name": "mounth.002.L_037_end_0155",
      "rotation": [
        -1.5085127395007055e-19,
        -1.734723475976807e-18,
        1.1440559276340758e-18,
        1.0
      ],
      "translation": [
        0.0,
        0.6002568006515503,
        0.0
      ]
    },
    {
      "children": [
        73
      ],
      "name": "mounth.003.L_038_038",
      "rotation": [
        -1.3759367334387207e-07,
        -0.706874430179596,
        0.7071067690849304,
        -0.01812691055238247
      ],
      "scale": [
        0.9999999403953552,
        0.9999998807907104,
        0.9999998807907104
      ],
      "translation": [
        -1.00173819065094,
        2.018033027648926,
        0.8700429201126099
      ]
    },
    {
      "name": "mounth.003.L_038_end_0156",
      "rotation": [
        -1.5085127395007055e-19,
        -1.734723475976807e-18,
        1.1440559276340758e-18,
        1.0
      ],
      "translation": [
        0.0,
        0.6002568006515503,
        -8.881784197001252e-16
      ]
    },
    {
      "children": [
        75
      ],
      "name": "mounth.004.L_039_00",
      "rotation": [
        -1.3759367334387207e-07,
        -0.706874430179596,
        0.7071067690849304,
        -0.01812691055238247
      ],
      "scale": [
        0.9999999403953552,
        0.9999998807907104,
        0.9999998807907104
      ],
      "translation": [
        -0.5417860150337219,
        2.181274890899658,
        0.8629685640335083
      ]
    },
    {
      "name": "mounth.004.L_039_end_0157",
      "rotation": [
        -1.5085127395007055e-19,
        -1.734723475976807e-18,
        1.1440559276340758e-18,
        1.0
      ],
      "translation": [
        0.0,
        0.6002568006515503,
        0.0
      ]
    },
    {
      "children": [
        77
      ],
      "name": "mounth.005.L_040_01",
      "rotation": [
        -1.3759367334387207e-07,
        -0.706874430179596,
        0.7071067690849304,
        -0.01812691055238247
      ],
      "scale": [
        0.9999999403953552,
        0.9999998807907104,
        0.9999998807907104
      ],
      "translation": [
        -0.11737126111984253,
        2.3499128818511963,
        0.856611430644989
      ]
    },
    {
      "name": "mounth.005.L_040_end_0159",
      "rotation": [
        -1.5085127395007055e-19,
        -1.734723475976807e-18,
        1.1440559276340758e-18,
        1.0
      ],
      "translation": [
        -1.1102230246251565e-16,
        0.6002568006515503,
        0.0
      ]
    },
    {
      "children": [
        79
      ],
      "name": "cheek.004.L_041_039",
      "rotation": [
        -1.3759367334387207e-07,
        -0.706874430179596,
        0.7071067690849304,
        -0.01812691055238247
      ],
      "scale": [
        0.9999999403953552,
        0.9999998807907104,
        0.9999998807907104
      ],
      "translation": [
        -1.3809436559677124,
        2.1368632316589355,
        1.351873517036438
      ]
    },
    {
      "name": "cheek.004.L_041_end_0160",
      "rotation": [
        -1.5085127395007055e-19,
        -1.734723475976807e-18,
        1.1440559276340758e-18,
        1.0
      ],
      "translation": [
        0.0,
        0.6002568006515503,
        -8.881784197001252e-16
      ]
    },
    {
      "children": [
        81
      ],
      "name": "cheek.005.L_042_040",
      "rotation": [
        -1.3759367334387207e-07,
        -0.706874430179596,
        0.7071067690849304,
        -0.01812691055238247
      ],
      "scale": [
        0.9999999403953552,
        0.9999998807907104,
        0.9999998807907104
      ],
      "translation": [
        -1.5813889503479004,
        1.9026895761489868,
        0.8583546876907349
      ]
    },
    {
      "name": "cheek.005.L_042_end_0161",
      "rotation": [
        -1.5085127395007055e-19,
        -1.734723475976807e-18,
        1.1440559276340758e-18,
        1.0
      ],
      "translation": [
        -2.220446049250313e-16,
        0.6002568006515503,
        0.0
      ]
    },
    {
      "children": [
        83
      ],
      "name": "cheek.006.L_043_041",
      "rotation": [
        -1.3759367334387207e-07,
        -0.706874430179596,
        0.7071067690849304,
        -0.01812691055238247
      ],
      "scale": [
        0.9999999403953552,
        0.9999998807907104,
        0.9999998807907104
      ],
      "translation": [
        -1.4018187522888184,
        1.7015715837478638,
        0.21317873895168304
      ]
    },
    {
      "name": "cheek.006.L_043_end_0162",
      "rotation": [
        -1.5085127395007055e-19,
        -1.734723475976807e-18,
        1.1440559276340758e-18,
        1.0
      ],
      "translation": [
        1.1102230246251565e-16,
        0.6002568006515503,
        0.0
      ]
    },
    {
      "children": [
        85
      ],
      "name": "cheek.007.L_044_042",
      "rotation": [
        -1.3759367334387207e-07,
        -0.706874430179596,
        0.7071067690849304,
        -0.01812691055238247
      ],
      "scale": [
        0.9999999403953552,
        0.9999998807907104,
        0.9999998807907104
      ],
      "translation": [
        -0.8309913873672485,
        1.8316426277160645,
        -0.36811625957489014
      ]
    },
    {
      "name": "cheek.007.L_044_end_0163",
      "rotation": [
        -1.5085127395007055e-19,
        -1.734723475976807e-18,
        1.1440559276340758e-18,
        1.0
      ],
      "translation": [
        5.551115123125783e-17,
        0.6002568006515503,
        0.0
      ]
    },
    {
      "children": [
        87
      ],
      "name": "cheek.008.L_045_043",
      "rotation": [
        -4.2128746713387955e-08,
        -0.706874430179596,
        0.7071067690849304,
        -0.01812698319554329
      ],
      "scale": [
        0.9999999403953552,
        1.0000001192092896,
        0.9999999403953552
      ],
      "translation": [
        -0.19966332614421844,
        2.0057790279388428,
        -0.6949061155319214
      ]
    },
    {
      "name": "cheek.008.L_045_end_0164",
      "rotation": [
        6.954934590345857e-21,
        1.734723475976807e-18,
        2.269822891924604e-19,
        1.0
      ],
      "translation": [
        5.551115123125783e-17,
        0.6002568006515503,
        0.0
      ]
    },
    {
      "children": [
        89
      ],
      "name": "jaw_046_044",
      "rotation": [
        -1.0698083485749521e-07,
        -0.41725775599479675,
        0.9087882041931152,
        4.274782554603007e-07
      ],
      "translation": [
        1.4311918050680106e-07,
        0.6002893447875977,
        -0.00010289379861205816
      ]
    },
    {
      "name": "jaw_046_end_0165",
      "rotation": [
        -5.551115123125783e-17,
        -0.0,
        0.0,
        1.0
      ],
      "translation": [
        8.470329472543003e-22,
        0.6003085970878601,
        -1.7763568394002505e-15
      ]
    },
    {
      "children": [
        91
      ],
      "name": "eyelid.R_047_045",
      "rotation": [
        -1.2555985051676544e-07,
        -0.7068743705749512,
        0.7071068286895752,
        0.01812715083360672
      ],
      "scale": [
        0.9999999403953552,
        0.9999998807907104,
        1.0
      ],
      "translation": [
        0.04829491674900055,
        2.3535139560699463,
        3.199218988418579
      ]
    },
    {
      "name": "eyelid.R_047_end_0166",
      "rotation": [
        -5.113961419047838e-20,
        -1.734723475976807e-18,
        -2.395347549879526e-19,
        1.0
      ],
      "translation": [
        0.0,
        0.6002568006515503,
        0.0
      ]
    },
    {
      "children": [
        93
      ],
      "name": "eyelid.001.R_048_046",
      "rotation": [
        -3.009492388628132e-08,
        -0.7068743705749512,
        0.7071068286895752,
        0.0181270781904459
      ],
      "scale": [
        0.9999999403953552,
        0.9999998807907104,
        1.0
      ],
      "translation": [
        0.6066164374351501,
        2.487980842590332,
        3.2243406772613525
      ]
    },
    {
      "name": "eyelid.001.R_048_end_0167",
      "rotation": [
        -1.4035600633799774e-19,
        -7.212442838484061e-38,
        5.138677575750923e-19,
        1.0
      ],
      "translation": [
        -5.551115123125783e-17,
        0.6002568006515503,
        8.881784197001252e-16
      ]
    },
    {
      "children": [
        95
      ],
      "name": "eyelid.002.R_049_047",
      "rotation": [
        -3.009492388628132e-08,
        -0.7068743705749512,
        0.7071068286895752,
        0.0181270781904459
      ],
      "scale": [
        0.9999999403953552,
        0.9999998807907104,
        1.0
      ],
      "translation": [
        1.3223659992218018,
        2.258626937866211,
        3.189375162124634
      ]
    },
    {
      "name": "eyelid.002.R_049_end_0168",
      "rotation": [
        -1.4035600633799774e-19,
        -7.212442838484061e-38,
        5.138677575750923e-19,
        1.0
      ],
      "translation": [
        1.1102230246251565e-16,
        0.6002568006515503,
        0.0
      ]
    },
    {
      "children": [
        97
      ],
      "name": "eyelid.003.R_050_048",
      "rotation": [
        -3.009492388628132e-08,
        -0.7068743705749512,
        0.7071068286895752,
        0.0181270781904459
      ],
      "scale": [
        0.9999999403953552,
        0.9999998807907104,
        1.0
      ],
      "translation": [
        1.5721458196640015,
        1.8780540227890015,
        3.1207754611968994
      ]
    },
    {
      "name": "eyelid.003.R_050_end_0169",
      "rotation": [
        -1.4035600633799774e-19,
        -7.212442838484061e-38,
        5.138677575750923e-19,
        1.0
      ],
      "translation": [
        2.220446049250313e-16,
        0.6002568006515503,
        0.0
      ]
    },
    {
      "children": [
        99
      ],
      "name": "eyelid.004.R_051_049",
      "rotation": [
        -3.009492388628132e-08,
        -0.7068743705749512,
        0.7071068286895752,
        0.0181270781904459
      ],
      "scale": [
        0.9999999403953552,
        0.9999998807907104,
        1.0
      ],
      "translation": [
        1.5038138628005981,
        2.0076119899749756,
        2.8961145877838135
      ]
    },
    {
      "name": "eyelid.004.R_051_end_0170",
      "rotation": [
        -1.4035600633799774e-19,
        -7.212442838484061e-38,
        5.138677575750923e-19,
        1.0
      ],
      "translation": [
        1.1102230246251565e-16,
        0.6002568006515503,
        0.0
      ]
    },
    {
      "children": [
        101
      ],
      "name": "eyelid.005.R_052_050",
      "rotation": [
        -1.2687736727912124e-07,
        -0.7068743705749512,
        0.7071068286895752,
        0.01812715083360672
      ],
      "scale": [
        0.9999999403953552,
        0.9999998211860657,
        1.0
      ],
      "translation": [
        0.09957635402679443,
        2.2827112674713135,
        2.9080069065093994
      ]
    },
    {
      "name": "eyelid.005.R_052_end_0171",
      "rotation": [
        2.2644896449251686e-20,
        6.241808794316504e-38,
        2.75638665825024e-18,
        1.0
      ],
      "translation": [
        1.1102230246251565e-16,
        0.6002568006515503,
        0.0
      ]
    },
    {
      "children": [
        103
      ],
      "name": "eyelid.006.R_053_051",
      "rotation": [
        -1.4927523750429827e-07,
        -0.7068743705749512,
        0.7071068286895752,
        0.01812712848186493
      ],
      "scale": [
        0.9999999403953552,
        0.9999998211860657,
        1.0
      ],
      "translation": [
        0.45881882309913635,
        2.3268282413482666,
        2.7925493717193604
      ]
    },
    {
      "name": "eyelid.006.R_053_end_0172",
      "rotation": [
        -8.909727813931172e-20,
        -1.734723475976807e-18,
        1.670498071290893e-18,
        1.0
      ],
      "translation": [
        0.0,
        0.6002568006515503,
        0.0
      ]
    },
    {
      "children": [
        105
      ],
      "name": "eyelid.007.R_054_052",
      "rotation": [
        -3.009492388628132e-08,
        -0.7068743705749512,
        0.7071068286895752,
        0.0181270781904459
      ],
      "scale": [
        0.9999999403953552,
        0.9999998807907104,
        1.0
      ],
      "translation": [
        1.1512231826782227,
        2.2416820526123047,
        2.8054678440093994
      ]
    },
    {
      "name": "eyelid.007.R_054_end_0173",
      "rotation": [
        -1.4035600633799774e-19,
        -7.212442838484061e-38,
        5.138677575750923e-19,
        1.0
      ],
      "translation": [
        1.1102230246251565e-16,
        0.6002568006515503,
        0.0
      ]
    },
    {
      "children": [
        107
      ],
      "name": "eyecore.R_055_053",
      "rotation": [
        -3.931757674990877e-08,
        -0.7068743705749512,
        0.7071068286895752,
        0.018127068877220154
      ],
      "scale": [
        0.9999999403953552,
        0.9999998807907104,
        1.0
      ],
      "translation": [
        0.14908640086650848,
        2.302847146987915,
        3.670898675918579
      ]
    },
    {
      "name": "eyecore.R_055_end_0174",
      "rotation": [
        -9.754113783225302e-21,
        -3.626168902881694e-38,
        3.7175788018429836e-18,
        1.0
      ],
      "translation": [
        -1.1102230246251565e-16,
        0.6002568006515503,
        -8.881784197001252e-16
      ]
    },
    {
      "children": [
        109
      ],
      "name": "eyecore.001.R_056_054",
      "rotation": [
        -3.009492388628132e-08,
        -0.7068743705749512,
        0.7071068286895752,
        0.0181270781904459
      ],
      "scale": [
        0.9999999403953552,
        0.9999998807907104,
        1.0
      ],
      "translation": [
        0.6072012186050415,
        2.338620662689209,
        3.8037893772125244
      ]
    },
    {
      "name": "eyecore.001.R_056_end_0175",
      "rotation": [
        -1.4035600633799774e-19,
        -7.212442838484061e-38,
        5.138677575750923e-19,
        1.0
      ],
      "translation": [
        -1.6653345369377348e-16,
        0.6002568006515503,
        8.881784197001252e-16
      ]
    },
    {
      "children": [
        111
      ],
      "name": "eyecore.002.R_057_055",
      "rotation": [
        -1.0274325035197762e-07,
        -0.706874430179596,
        0.7071067690849304,
        0.01812700740993023
      ],
      "scale": [
        1.0000001192092896,
        0.9999997615814209,
        0.9999999403953552
      ],
      "translation": [
        1.3283604383468628,
        2.117469310760498,
        3.6649515628814697
      ]
    },
    {
      "name": "eyecore.002.R_057_end_0176",
      "rotation": [
        -1.088702035017793e-19,
        1.734723475976807e-18,
        -1.7047497593003356e-18,
        1.0
      ],
      "translation": [
        1.1102230246251565e-16,
        0.6002568006515503,
        -8.881784197001252e-16
      ]
    },
    {
      "children": [
        113
      ],
      "name": "eyecore.003.R_058_056",
      "rotation": [
        -3.009492388628132e-08,
        -0.7068743705749512,
        0.7071068286895752,
        0.0181270781904459
      ],
      "scale": [
        0.9999999403953552,
        0.9999998807907104,
        1.0
      ],
      "translation": [
        1.5949572324752808,
        1.7696188688278198,
        3.397117853164673
      ]
    },
    {
      "name": "eyecore.003.R_058_end_0177",
      "rotation": [
        -1.4035600633799774e-19,
        -7.212442838484061e-38,
        5.138677575750923e-19,
        1.0
      ],
      "translation": [
        1.1102230246251565e-16,
        0.6002568006515503,
        0.0
      ]
    },
    {
      "children": [
        115
      ],
      "name": "brow.R_059_057",
      "rotation": [
        -1.4927523750429827e-07,
        -0.7068743705749512,
        0.7071068286895752,
        0.01812712848186493
      ],
      "scale": [
        0.9999999403953552,
        0.9999998211860657,
        1.0
      ],
      "translation": [
        0.4470503032207489,
        2.594160318374634,
        4.411128997802734
      ]
    },
    {
      "name": "brow.R_059_end_0178",
      "rotation": [
        -8.909727813931172e-20,
        -1.734723475976807e-18,
        1.670498071290893e-18,
        1.0
      ],
      "translation": [
        -1.1102230246251565e-16,
        0.6002568006515503,
        0.0
      ]
    },
    {
      "children": [
        117
      ],
      "name": "brow.001.R_060_058",
      "rotation": [
        -3.009492388628132e-08,
        -0.7068743705749512,
        0.7071068286895752,
        0.0181270781904459
      ],
      "scale": [
        0.9999999403953552,
        0.9999998807907104,
        1.0
      ],
      "translation": [
        1.0285917520523071,
        2.374650001525879,
        4.321815490722656
      ]
    },
    {
      "name": "brow.001.R_060_end_0158",
      "rotation": [
        -1.4035600633799774e-19,
        -7.212442838484061e-38,
        5.138677575750923e-19,
        1.0
      ],
      "translation": [
        -3.3306690738754696e-16,
        0.6002568006515503,
        0.0
      ]
    },
    {
      "children": [
        119
      ],
      "name": "brow.002.R_061_059",
      "rotation": [
        -1.0274325035197762e-07,
        -0.706874430179596,
        0.7071067690849304,
        0.01812700740993023
      ],
      "scale": [
        1.0000001192092896,
        0.9999997615814209,
        0.9999999403953552
      ],
      "translation": [
        1.786310076713562,
        1.8182094097137451,
        3.947754144668579
      ]
    },
    {
      "name": "brow.002.R_061_end_0180",
      "rotation": [
        -1.088702035017793e-19,
        1.734723475976807e-18,
        -1.7047497593003356e-18,
        1.0
      ],
      "translation": [
        2.220446049250313e-16,
        0.6002568006515503,
        -8.881784197001252e-16
      ]
    },
    {
      "children": [
        121
      ],
      "name": "cheek.R_062_060",
      "rotation": [
        -1.0274325035197762e-07,
        -0.706874430179596,
        0.7071067690849304,
        0.01812700740993023
      ],
      "scale": [
        1.0000001192092896,
        0.9999997615814209,
        0.9999999403953552
      ],
      "translation": [
        2.28898549079895,
        1.4163843393325806,
        3.298067331314087
      ]
    },
    {
      "name": "cheek.R_062_end_0181",
      "rotation": [
        -1.088702035017793e-19,
        1.734723475976807e-18,
        -1.7047497593003356e-18,
        1.0
      ],
      "translation": [
        0.0,
        0.6002568006515503,
        -8.881784197001252e-16
      ]
    },
    {
      "children": [
        123
      ],
      "name": "cheek.001.R_063_061",
      "rotation": [
        -1.0274325035197762e-07,
        -0.706874430179596,
        0.7071067690849304,
        0.01812700740993023
      ],
      "scale": [
        1.0000001192092896,
        0.9999997615814209,
        0.9999999403953552
      ],
      "translation": [
        2.2560629844665527,
        1.579511284828186,
        2.6372034549713135
      ]
    },
    {
      "name": "cheek.001.R_063_end_0182",
      "rotation": [
        -1.088702035017793e-19,
        1.734723475976807e-18,
        -1.7047497593003356e-18,
        1.0
      ],
      "translation": [
        0.0,
        0.6002568006515503,
        0.0
      ]
    },
    {
      "children": [
        125
      ],
      "name": "cheek.002.R_064_062",
      "rotation": [
        -2.8118641637320252e-08,
        -0.7068743705749512,
        0.7071068286895752,
        0.01812708005309105
      ],
      "scale": [
        0.9999999403953552,
        0.9999998807907104,
        1.0
      ],
      "translation": [
        1.588007926940918,
        2.197295904159546,
        2.2349417209625244
      ]
    },
    {
      "name": "cheek.002.R_064_end_0183",
      "rotation": [
        8.717821911818869e-20,
        1.734723475976807e-18,
        1.9792012555102235e-19,
        1.0
      ],
      "translation": [
        0.0,
        0.6002568006515503,
        0.0
      ]
    },
    {
      "children": [
        127
      ],
      "name": "cheek.003.R_065_063",
      "rotation": [
        -1.4729896236076456e-07,
        -0.7068743705749512,
        0.7071068286895752,
        0.01812713034451008
      ],
      "scale": [
        0.9999999403953552,
        0.9999998211860657,
        1.0
      ],
      "translation": [
        0.8133314847946167,
        2.36637020111084,
        2.1697256565093994
      ]
    },
    {
      "name": "cheek.003.R_065_end_0184",
      "rotation": [
        -6.564505341220828e-21,
        1.734723475976807e-18,
        -8.295066444355268e-19,
        1.0
      ],
      "translation": [
        0.0,
        0.6002568006515503,
        -8.881784197001252e-16
      ]
    },
    {
      "children": [
        129
      ],
      "name": "mounth.R_066_064",
      "rotation": [
        -3.4706250318095044e-08,
        -0.7068743705749512,
        0.7071068286895752,
        0.0181270744651556
      ],
      "scale": [
        0.9999999403953552,
        0.9999998807907104,
        1.0
      ],
      "translation": [
        0.12700976431369781,
        2.5190508365631104,
        0.8879873156547546
      ]
    },
    {
      "name": "mounth.R_066_end_0185",
      "rotation": [
        -6.913906431963227e-20,
        1.734723475976807e-18,
        -2.2207919679106766e-18,
        1.0
      ],
      "translation": [
        0.0,
        0.6002568006515503,
        -8.881784197001252e-16
      ]
    },
    {
      "children": [
        131
      ],
      "name": "mounth.001.R_067_065",
      "rotation": [
        -3.009492388628132e-08,
        -0.7068743705749512,
        0.7071068286895752,
        0.0181270781904459
      ],
      "scale": [
        0.9999999403953552,
        0.9999998807907104,
        1.0
      ],
      "translation": [
        0.5234775543212891,
        2.347118377685547,
        0.8842965960502625
      ]
    },
    {
      "name": "mounth.001.R_067_end_0186",
      "rotation": [
        -1.4035600633799774e-19,
        -7.212442838484061e-38,
        5.138677575750923e-19,
        1.0
      ],
      "translation": [
        -2.7755575615628914e-17,
        0.6002568006515503,
        8.881784197001252e-16
      ]
    },
    {
      "children": [
        133
      ],
      "name": "mounth.002.R_068_066",
      "rotation": [
        -3.009492388628132e-08,
        -0.7068743705749512,
        0.7071068286895752,
        0.0181270781904459
      ],
      "scale": [
        0.9999999403953552,
        0.9999998807907104,
        1.0
      ],
      "translation": [
        0.9521661400794983,
        2.0929112434387207,
        0.895063579082489
      ]
    },
    {
      "name": "mounth.002.R_068_end_0187",
      "rotation": [
        -1.4035600633799774e-19,
        -7.212442838484061e-38,
        5.138677575750923e-19,
        1.0
      ],
      "translation": [
        0.0,
        0.6002568006515503,
        0.0
      ]
    },
    {
      "children": [
        135
      ],
      "name": "mounth.003.R_069_067",
      "rotation": [
        -3.009492388628132e-08,
        -0.7068743705749512,
        0.7071068286895752,
        0.0181270781904459
      ],
      "scale": [
        0.9999999403953552,
        0.9999998807907104,
        1.0
      ],
      "translation": [
        1.0017374753952026,
        2.0180325508117676,
        0.8700429797172546
      ]
    },
    {
      "name": "mounth.003.R_069_end_0188",
      "rotation": [
        -1.4035600633799774e-19,
        -7.212442838484061e-38,
        5.138677575750923e-19,
        1.0
      ],
      "translation": [
        0.0,
        0.6002568006515503,
        0.0
      ]
    },
    {
      "children": [
        137
      ],
      "name": "mounth.004.R_070_068",
      "rotation": [
        -3.009492388628132e-08,
        -0.7068743705749512,
        0.7071068286895752,
        0.0181270781904459
      ],
      "scale": [
        0.9999999403953552,
        0.9999998807907104,
        1.0
      ],
      "translation": [
        0.5417868494987488,
        2.1812744140625,
        0.8629686236381531
      ]
    },
    {
      "name": "mounth.004.R_070_end_0189",
      "rotation": [
        -1.4035600633799774e-19,
        -7.212442838484061e-38,
        5.138677575750923e-19,
        1.0
      ],
      "translation": [
        -2.7755575615628914e-17,
        0.6002568006515503,
        0.0
      ]
    },
    {
      "children": [
        139
      ],
      "name": "mounth.005.R_071_069",
      "rotation": [
        -3.931757674990877e-08,
        -0.7068743705749512,
        0.7071068286895752,
        0.018127068877220154
      ],
      "scale": [
        0.9999999403953552,
        0.9999998807907104,
        1.0
      ],
      "translation": [
        0.11737211793661118,
        2.3499128818511963,
        0.856611430644989
      ]
    },
    {
      "name": "mounth.005.R_071_end_0190",
      "rotation": [
        -9.754113783225302e-21,
        -3.626168902881694e-38,
        3.7175788018429836e-18,
        1.0
      ],
      "translation": [
        0.0,
        0.6002568006515503,
        -8.881784197001252e-16
      ]
    },
    {
      "children": [
        141
      ],
      "name": "cheek.004.R_072_070",
      "rotation": [
        -3.225584421784333e-08,
        -0.7068744897842407,
        0.7071067690849304,
        0.01812708005309105
      ],
      "scale": [
        0.9999999403953552,
        1.0000001192092896,
        1.0
      ],
      "translation": [
        1.3809435367584229,
        2.1368489265441895,
        1.351873517036438
      ]
    },
    {
      "name": "cheek.004.R_072_end_0191",
      "rotation": [
        1.6312001679545706e-20,
        3.469446951953614e-18,
        9.018499996530363e-19,
        1.0
      ],
      "translation": [
        3.3306690738754696e-16,
        0.6002568006515503,
        8.881784197001252e-16
      ]
    },
    {
      "children": [
        143
      ],
      "name": "cheek.005.R_073_071",
      "rotation": [
        -3.009492388628132e-08,
        -0.7068743705749512,
        0.7071068286895752,
        0.0181270781904459
      ],
      "scale": [
        0.9999999403953552,
        0.9999998807907104,
        1.0
      ],
      "translation": [
        1.5813921689987183,
        1.9026888608932495,
        0.8583547472953796
      ]
    },
    {
      "name": "cheek.005.R_073_end_0192",
      "rotation": [
        -1.4035600633799774e-19,
        -7.212442838484061e-38,
        5.138677575750923e-19,
        1.0
      ],
      "translation": [
        0.0,
        0.6002568006515503,
        0.0
      ]
    },
    {
      "children": [
        145
      ],
      "name": "cheek.006.R_074_072",
      "rotation": [
        -3.009492388628132e-08,
        -0.7068743705749512,
        0.7071068286895752,
        0.0181270781904459
      ],
      "scale": [
        0.9999999403953552,
        0.9999998807907104,
        1.0
      ],
      "translation": [
        1.4018179178237915,
        1.7015708684921265,
        0.21317879855632782
      ]
    },
    {
      "name": "cheek.006.R_074_end_0193",
      "rotation": [
        -1.4035600633799774e-19,
        -7.212442838484061e-38,
        5.138677575750923e-19,
        1.0
      ],
      "translation": [
        1.1102230246251565e-16,
        0.6002568006515503,
        0.0
      ]
    },
    {
      "children": [
        147
      ],
      "name": "cheek.007.R_075_073",
      "rotation": [
        -3.009492388628132e-08,
        -0.7068743705749512,
        0.7071068286895752,
        0.0181270781904459
      ],
      "scale": [
        0.9999999403953552,
        0.9999998807907104,
        1.0
      ],
      "translation": [
        0.8309921622276306,
        1.8316421508789063,
        -0.36811622977256775
      ]
    },
    {
      "name": "cheek.007.R_075_end_0194",
      "rotation": [
        -1.4035600633799774e-19,
        -7.212442838484061e-38,
        5.138677575750923e-19,
        1.0
      ],
      "translation": [
        5.551115123125783e-17,
        0.6002568006515503,
        -8.881784197001252e-16
      ]
    },
    {
      "children": [
        149
      ],
      "name": "cheek.008.R_076_074",
      "rotation": [
        -1.2574450636293477e-07,
        -0.7068744897842407,
        0.7071067690849304,
        0.01812715455889702
      ],
      "scale": [
        0.9999999403953552,
        1.0000001192092896,
        1.0
      ],
      "translation": [
        0.19966420531272888,
        2.0057790279388428,
        -0.6949061155319214
      ]
    },
    {
      "name": "cheek.008.R_076_end_0195",
      "rotation": [
        4.685812733990391e-20,
        5.204170427930421e-18,
        4.2760005751617133e-19,
        1.0
      ],
      "translation": [
        -5.551115123125783e-17,
        0.6002568006515503,
        0.0
      ]
    },
    {
      "children": [
        151
      ],
      "name": "teeth_077_075",
      "rotation": [
        -1.6582394124498023e-08,
        0.14872434735298157,
        0.9888787865638733,
        1.993909108932712e-07
      ],
      "scale": [
        1.0,
        1.0,
        0.9999995231628418
      ],
      "translation": [
        -0.4549894332885742,
        2.1117660999298096,
        1.0348244905471802
      ]
    },
    {
      "name": "teeth_077_end_0196",
      "rotation": [
        0.0,
        6.617444900424222e-24,
        -1.3234889800848443e-23,
        1.0
      ],
      "translation": [
        0.0,
        0.6003007888793945,
        3.552713678800501e-15
      ]
    },
    {
      "children": [
        153,
        155
      ],
      "name": "head.002_078_076",
      "rotation": [
        4.728922320396123e-08,
        0.7071068286895752,
        0.7071067094802856,
        5.9480928626953755e-08
      ],
      "translation": [
        5.1676444456916215e-08,
        0.2933323383331299,
        1.0592347383499146
      ]
    },
    {
      "children": [
        154
      ],
      "name": "eye.L_079_077",
      "rotation": [
        7.940928200710548e-23,
        -5.233307120988684e-08,
        -1.0608801382319986e-21,
        1.0
      ],
      "translation": [
        0.7004802227020264,
        1.9466115236282349,
        2.0175371170043945
      ]
    },
    {
      "name": "eye.L_079_end_0197",
      "rotation": [
        0.0,
        -0.0,
        -2.0889076213297654e-24,
        1.0
      ],
      "translation": [
        -1.1102230246251565e-16,
        1.0,
        -8.881784197001252e-16
      ]
    },
    {
      "children": [
        156
      ],
      "name": "eye.R_080_078",
      "rotation": [
        7.940928200710548e-23,
        -5.233307120988684e-08,
        -1.0608801382319986e-21,
        1.0
      ],
      "translation": [
        -0.5856299996376038,
        1.920629620552063,
        2.0226573944091797
      ]
    },
    {
      "name": "eye.R_080_end_0198",
      "rotation": [
        0.0,
        -0.0,
        -2.0889076213297654e-24,
        1.0
      ],
      "translation": [
        0.0,
        1.0,
        0.0
      ]
    },
    {
      "children": [
        158
      ],
      "name": "calvice.L_081_079",
      "rotation": [
        -0.6257485151290894,
        -0.38372114300727844,
        -0.26741763949394226,
        0.6242473125457764
      ],
      "scale": [
        1.0,
        1.0,
        0.9999999403953552
      ],
      "translation": [
        0.7471779584884644,
        2.0731468200683594,
        1.379075288772583
      ]
    },
    {
      "children": [
        159
      ],
      "name": "upperarm.L_082_080",
      "rotation": [
        -0.17823953926563263,
        -0.1421361267566681,
        -0.26129335165023804,
        0.937951922416687
      ],
      "scale": [
        1.0,
        1.0,
        1.0000001192092896
      ],
      "translation": [
        -2.384185791015625e-07,
        2.3221499919891357,
        1.1324882507324219e-06
      ]
    },
    {
      "children": [
        160
      ],
      "name": "lowerarm.L_083_081",
      "rotation": [
        -0.010770888067781925,
        1.3566725101554766e-05,
        -0.09661147743463516,
        0.9952639937400818
      ],
      "translation": [
        1.0758638381958008e-05,
        3.9498510360717773,
        0.00010000914335250854
      ]
    },
    {
      "children": [
        161,
        165,
        169,
        173,
        177
      ],
      "name": "hand.L_084_082",
      "rotation": [
        0.047326795756816864,
        0.05627424642443657,
        -0.010928881354629993,
        0.9972331523895264
      ],
      "scale": [
        0.9999999403953552,
        0.9999999403953552,
        1.0
      ],
      "translation": [
        -1.1920928955078125e-05,
        3.993290901184082,
        -0.00010316073894500732
      ]
    },
    {
      "children": [
        162
      ],
      "name": "finger.001.L_085_083",
      "rotation": [
        -0.024503709748387337,
        -0.02878587134182453,
        -0.015437409281730652,
        0.999165952205658
      ],
      "scale": [
        1.0,
        1.0000001192092896,
        1.0
      ],
      "translation": [
        0.8609124422073364,
        2.1196186542510986,
        0.09405582398176193
      ]
    },
    {
      "children": [
        163
      ],
      "name": "finger.008.L_086_084",
      "rotation": [
        -2.6705674827098846e-07,
        -2.707820385694504e-07,
        -5.559996338888595e-07,
        1.0
      ],
      "scale": [
        0.9999999403953552,
        0.9999998807907104,
        1.0
      ],
      "translation": [
        1.3709068298339844e-05,
        0.6487133502960205,
        8.940696716308594e-07
      ]
    },
    {
      "children": [
        164
      ],
      "name": "finger.007.L_087_085",
      "rotation": [
        -1.862645371275562e-09,
        -6.984919864727601e-10,
        -1.1292286217212677e-08,
        1.0
      ],
      "scale": [
        1.0,
        1.0,
        0.9999999403953552
      ],
      "translation": [
        -8.344650268554688e-07,
        0.6487118005752563,
        -1.8030405044555664e-06
      ]
    },
    {
      "name": "finger.007.L_087_end_0179",
      "rotation": [
        -3.469446951953614e-18,
        6.938893903907228e-18,
        2.407412430484045e-35,
        1.0
      ],
      "translation": [
        0.0,
        0.6487091779708862,
        -3.552713678800501e-15
      ]
    },
    {
      "children": [
        166
      ],
      "name": "finger.002.L_088_086",
      "rotation": [
        -0.07995785027742386,
        -0.09485591948032379,
        0.005310429725795984,
        0.9922605156898499
      ],
      "translation": [
        0.2979111075401306,
        2.3257501125335693,
        0.005100775510072708
      ]
    },
    {
      "children": [
        167
      ],
      "name": "finger.010.L_089_087",
      "rotation": [
        8.695758879184723e-06,
        8.997973054647446e-06,
        5.816109478473663e-06,
        1.0
      ],
      "translation": [
        7.152557373046875e-07,
        0.5896252393722534,
        -3.2782554626464844e-07
      ]
    },
    {
      "children": [
        168
      ],
      "name": "finger.009.L_090_088",
      "rotation": [
        -8.381902283360887e-09,
        2.3283066585833012e-09,
        -8.239936510889834e-18,
        1.0
      ],
      "scale": [
        1.0,
        1.0,
        1.0000001192092896
      ],
      "translation": [
        -5.960464477539063e-07,
        0.5896744728088379,
        -2.980232594040899e-08
      ]
    },
    {
      "name": "finger.009.L_090_end_0199",
      "rotation": [
        3.469446951953614e-18,
        2.7755575615628914e-17,
        -9.62964972193618e-35,
        1.0
      ],
      "translation": [
        0.0,
        0.589674711227417,
        -3.552713678800501e-15
      ]
    },
    {
      "children": [
        170
      ],
      "name": "finger.003.L_091_089",
      "rotation": [
        -0.16066409647464752,
        -0.19098570942878723,
        0.03390767425298691,
        0.967761218547821
      ],
      "scale": [
        1.0000001192092896,
        1.0000001192092896,
        1.0
      ],
      "translation": [
        -0.20482869446277618,
        2.3152849674224854,
        -0.3537774384021759
      ]
    },
    {
      "children": [
        171
      ],
      "name": "finger.012.L_092_090",
      "rotation": [
        1.0485761777090374e-05,
        1.5407336832140572e-05,
        -9.28156168811256e-06,
        1.0
      ],
      "scale": [
        0.9999999403953552,
        0.9999998807907104,
        0.9999999403953552
      ],
      "translation": [
        1.2606382369995117e-05,
        0.5723552107810974,
        -7.808208465576172e-06
      ]
    },
    {
      "children": [
        172
      ],
      "name": "finger.011.L_093_091",
      "rotation": [
        2.7939677238464355e-09,
        1.3271346688270569e-08,
        1.3504177331924438e-08,
        1.0
      ],
      "translation": [
        -1.1712312698364258e-05,
        0.5724025964736938,
        5.4836273193359375e-06
      ]
    },
    {
      "name": "finger.011.L_093_end_0200",
      "rotation": [
        -3.8163916471489756e-17,
        -0.0,
        0.0,
        1.0
      ],
      "translation": [
        0.0,
        0.57240229845047,
        3.552713678800501e-15
      ]
    },
    {
      "children": [
        174
      ],
      "name": "finger.L_094_092",
      "rotation": [
        -0.229824960231781,
        -0.2735890746116638,
        0.07198073714971542,
        0.9312079548835754
      ],
      "scale": [
        1.0000001192092896,
        1.0000001192092896,
        1.0
      ],
      "translation": [
        -0.626693606376648,
        2.12453031539917,
        -0.7040659189224243
      ]
    },
    {
      "children": [
        175
      ],
      "name": "finger.014.L_095_093",
      "rotation": [
        1.5249474927259143e-05,
        1.7715618014335632e-05,
        -3.7364661693573e-06,
        1.0
      ],
      "scale": [
        1.0,
        1.0,
        1.0000001192092896
      ],
      "translation": [
        -1.0848045349121094e-05,
        0.5154125094413757,
        7.212162017822266e-06
      ]
    },
    {
      "children": [
        176
      ],
      "name": "finger.013.L_096_094",
      "rotation": [
        1.862645149230957e-08,
        -9.31322907682386e-10,
        -1.6763806343078613e-08,
        1.0
      ],
      "scale": [
        1.0,
        1.0,
        0.9999999403953552
      ],
      "translation": [
        2.086162567138672e-05,
        0.5154340863227844,
        -1.990795135498047e-05
      ]
    },
    {
      "name": "finger.013.L_096_end_0201",
      "rotation": [
        -3.469446951953614e-17,
        2.7755575615628914e-17,
        -2.7755575615628914e-17,
        1.0
      ],
      "translation": [
        -1.7763568394002505e-15,
        0.5154405236244202,
        0.0
      ]
    },
    {
      "children": [
        178
      ],
      "name": "finger.004.L_097_095",
      "rotation": [
        -0.29678311944007874,
        -0.34981006383895874,
        -0.11698811501264572,
        0.880832850933075
      ],
      "scale": [
        1.0,
        1.0,
        1.0000001192092896
      ],
      "translation": [
        0.7724879384040833,
        0.6385771036148071,
        -0.12023836374282837
      ]
    },
    {
      "children": [
        179
      ],
      "name": "finger.005.L_098_096",
      "rotation": [
        0.2051362246274948,
        0.22139374911785126,
        0.10157204419374466,
        0.9479384422302246
      ],
      "scale": [
        1.0000001192092896,
        1.0000001192092896,
        1.0000001192092896
      ],
      "translation": [
        7.152557373046875e-07,
        1.052774429321289,
        2.5033950805664063e-06
      ]
    },
    {
      "children": [
        180
      ],
      "name": "finger.006.L_099_097",
      "rotation": [
        -0.15789157152175903,
        -0.16393928229808807,
        -0.10036692023277283,
        0.9685662984848022
      ],
      "translation": [
        9.5367431640625e-07,
        0.6282563209533691,
        -1.430511474609375e-06
      ]
    },
    {
      "name": "finger.006.L_099_end_0202",
      "rotation": [
        4.163336342344337e-17,
        -2.311115933264683e-33,
        -5.551115123125783e-17,
        1.0
      ],
      "translation": [
        -1.7763568394002505e-15,
        0.6282720565795898,
        3.552713678800501e-15
      ]
    },
    {
      "children": [
        182
      ],
      "name": "hood.L_0100_098",
      "rotation": [
        -0.4020015299320221,
        -0.3722270131111145,
        -0.2594073414802551,
        0.7953299283981323
      ],
      "translation": [
        0.8670944571495056,
        2.911581516265869,
        0.7793142795562744
      ]
    },
    {
      "children": [
        183
      ],
      "name": "hood.001.L_0101_099",
      "rotation": [
        -0.025255871936678886,
        -0.012740850448608398,
        0.0034610345028340816,
        0.9995938539505005
      ],
      "translation": [
        -2.467632293701172e-05,
        1.6452357769012451,
        4.172325134277344e-07
      ]
    },
    {
      "name": "hood.001.L_0101_end_0203",
      "rotation": [
        1.3877787807814457e-17,
        5.551115123125783e-17,
        -6.938893903907228e-17,
        1.0
      ],
      "translation": [
        -8.881784197001252e-16,
        1.6452202796936035,
        0.0
      ]
    },
    {
      "children": [
        185
      ],
      "name": "calvice.R_0102_0100",
      "rotation": [
        -0.6257485151290894,
        0.38372114300727844,
        0.2674177289009094,
        0.6242472529411316
      ],
      "translation": [
        -0.7471769452095032,
        2.0731468200683594,
        1.379075288772583
      ]
    },
    {
      "children": [
        186
      ],
      "name": "upperarm.R_0103_0101",
      "rotation": [
        -0.17823952436447144,
        0.1421360820531845,
        0.26129329204559326,
        0.937951922416687
      ],
      "scale": [
        1.0,
        0.9999999403953552,
        1.0
      ],
      "translation": [
        -6.109476089477539e-07,
        2.322150707244873,
        -7.748603820800781e-07
      ]
    },
    {
      "children": [
        187
      ],
      "name": "lowerarm.R_0104_0102",
      "rotation": [
        -0.01077092532068491,
        -1.35560721901129e-05,
        0.09661150723695755,
        0.9952639937400818
      ],
      "scale": [
        0.9999999403953552,
        1.0,
        1.0
      ],
      "translation": [
        -1.0758638381958008e-05,
        3.9498538970947266,
        9.9964439868927e-05
      ]
    },
    {
      "children": [
        188,
        192,
        196,
        200,
        204
      ],
      "name": "hand.R_0105_0103",
      "rotation": [
        0.047326818108558655,
        -0.056274257600307465,
        0.01092887669801712,
        0.9972331523895264
      ],
      "scale": [
        1.0,
        0.9999999403953552,
        1.0
      ],
      "translation": [
        1.1563301086425781e-05,
        3.9932913780212402,
        -0.00010071694850921631
      ]
    },
    {
      "children": [
        189
      ],
      "name": "finger.001.R_0106_0104",
      "rotation": [
        -0.02450372837483883,
        0.02878587134182453,
        0.015437411144375801,
        0.999165952205658
      ],
      "scale": [
        1.0000001192092896,
        1.0,
        1.0
      ],
      "translation": [
        -0.8609127998352051,
        2.1196179389953613,
        0.09405752271413803
      ]
    },
    {
      "children": [
        190
      ],
      "name": "finger.008.R_0107_0105",
      "rotation": [
        -2.637971192598343e-07,
        2.782326191663742e-07,
        5.291076377034187e-07,
        1.0
      ],
      "scale": [
        0.9999999403953552,
        1.0,
        1.0
      ],
      "translation": [
        -1.33514404296875e-05,
        0.6487151384353638,
        1.3262033462524414e-06
      ]
    },
    {
      "children": [
        191
      ],
      "name": "finger.007.R_0108_0106",
      "rotation": [
        -5.8207664466181086e-08,
        6.635673344135284e-08,
        1.3737007975578308e-07,
        1.0
      ],
      "scale": [
        1.0,
        0.9999999403953552,
        1.0
      ],
      "translation": [
        3.5762786865234375e-07,
        0.6487097144126892,
        3.2782554626464844e-07
      ]
    },
    {
      "name": "finger.007.R_0108_end_0204",
      "rotation": [
        -5.204170427930421e-18,
        3.469446951953614e-18,
        -1.3877787807814457e-17,
        1.0
      ],
      "translation": [
        -4.440892098500626e-16,
        0.6487082242965698,
        -3.552713678800501e-15
      ]
    },
    {
      "children": [
        193
      ],
      "name": "finger.002.R_0109_0107",
      "rotation": [
        -0.07995787262916565,
        0.09485591948032379,
        -0.005310432985424995,
        0.9922605156898499
      ],
      "scale": [
        1.0,
        1.0,
        1.0000001192092896
      ],
      "translation": [
        -0.29791122674942017,
        2.3257503509521484,
        0.00510246679186821
      ]
    },
    {
      "children": [
        194
      ],
      "name": "finger.010.R_0110_0108",
      "rotation": [
        8.703675121068954e-06,
        -8.989125490188599e-06,
        -5.829147539770929e-06,
        1.0
      ],
      "scale": [
        1.0,
        1.0000001192092896,
        1.0
      ],
      "translation": [
        -2.384185791015625e-07,
        0.589626669883728,
        -1.1324882507324219e-06
      ]
    },
    {
      "children": [
        195
      ],
      "name": "finger.009.R_0111_0109",
      "rotation": [
        -4.190951585769653e-09,
        -1.5366822481155396e-08,
        4.6566128730773926e-09,
        1.0
      ],
      "translation": [
        -1.1920928955078125e-07,
        0.5896753668785095,
        -8.642673492431641e-07
      ]
    },
    {
      "name": "finger.009.R_0111_end_0205",
      "rotation": [
        -5.204170427930421e-18,
        -1.3877787807814457e-17,
        1.3877787807814457e-17,
        1.0
      ],
      "translation": [
        -8.881784197001252e-16,
        0.589674711227417,
        3.552713678800501e-15
      ]
    },
    {
      "children": [
        197
      ],
      "name": "finger.003.R_0112_0110",
      "rotation": [
        -0.16066408157348633,
        0.19098567962646484,
        -0.0339076891541481,
        0.9677613377571106
      ],
      "scale": [
        1.0000001192092896,
        1.0,
        1.0
      ],
      "translation": [
        0.20482856035232544,
        2.3152830600738525,
        -0.3537777066230774
      ]
    },
    {
      "children": [
        198
      ],
      "name": "finger.012.R_0113_0111",
      "rotation": [
        1.0190531611442566e-05,
        -1.5055760741233826e-05,
        9.299255907535553e-06,
        1.0
      ],
      "translation": [
        -1.2040138244628906e-05,
        0.5723563432693481,
        -6.794929504394531e-06
      ]
    },
    {
      "children": [
        199
      ],
      "name": "finger.011.R_0114_0112",
      "rotation": [
        -2.9336661100387573e-07,
        3.019813448190689e-07,
        7.916241884231567e-09,
        1.0
      ],
      "translation": [
        1.195073127746582e-05,
        0.5724037885665894,
        5.900859832763672e-06
      ]
    },
    {
      "name": "finger.011.R_0114_end_0206",
      "rotation": [
        -9.367506770274758e-17,
        -0.0,
        0.0,
        1.0
      ],
      "translation": [
        0.0,
        0.5724005699157715,
        -3.552713678800501e-15
      ]
    },
    {
      "children": [
        201
      ],
      "name": "finger.R_0115_0113",
      "rotation": [
        -0.22982504963874817,
        0.27358904480934143,
        -0.07198072969913483,
        0.9312079548835754
      ],
      "scale": [
        1.0000001192092896,
        1.0000001192092896,
        1.0
      ],
      "translation": [
        0.626693606376648,
        2.124530553817749,
        -0.7040642499923706
      ]
    },
    {
      "children": [
        202
      ],
      "name": "finger.014.R_0116_0114",
      "rotation": [
        1.5284866094589233e-05,
        -1.770351082086563e-05,
        3.7495046854019165e-06,
        1.0
      ],
      "translation": [
        1.0251998901367188e-05,
        0.5154138803482056,
        9.179115295410156e-06
      ]
    },
    {
      "children": [
        203
      ],
      "name": "finger.013.R_0117_0115",
      "rotation": [
        1.6763809895792292e-08,
        -1.3969839507410597e-08,
        4.839879027370884e-16,
        1.0
      ],
      "scale": [
        1.0,
        0.9999999403953552,
        0.9999999403953552
      ],
      "translation": [
        -2.0265579223632813e-05,
        0.5154328346252441,
        -2.0444393157958984e-05
      ]
    },
    {
      "name": "finger.013.R_0117_end_0207",
      "rotation": [
        4.85722573273506e-17,
        -2.7755575615628914e-17,
        1.3877787807814457e-17,
        1.0
      ],
      "translation": [
        1.7763568394002505e-15,
        0.5154405236244202,
        -3.552713678800501e-15
      ]
    },
    {
      "children": [
        205
      ],
      "name": "finger.004.R_0118_0116",
      "rotation": [
        -0.2967831790447235,
        0.34981009364128113,
        0.1169881597161293,
        0.8808327913284302
      ],
      "scale": [
        1.0000001192092896,
        1.0000001192092896,
        1.0000001192092896
      ],
      "translation": [
        -0.772487998008728,
        0.6385763883590698,
        -0.1202385425567627
      ]
    },
    {
      "children": [
        206
      ],
      "name": "finger.005.R_0119_0117",
      "rotation": [
        0.20513619482517242,
        -0.22139370441436768,
        -0.10157210379838943,
        0.9479383230209351
      ],
      "scale": [
        1.0,
        0.9999998807907104,
        1.0000001192092896
      ],
      "translation": [
        -4.76837158203125e-07,
        1.0527753829956055,
        9.5367431640625e-07
      ]
    },
    {
      "children": [
        207
      ],
      "name": "finger.006.R_0120_0118",
      "rotation": [
        -0.15789157152175903,
        0.16393932700157166,
        0.10036695003509521,
        0.9685662984848022
      ],
      "scale": [
        1.0,
        1.0,
        0.9999999403953552
      ],
      "translation": [
        -1.1920928955078125e-06,
        0.6282554864883423,
        -8.940696716308594e-07
      ]
    },
    {
      "name": "finger.006.R_0120_end_0208",
      "rotation": [
        2.7755575615628914e-17,
        2.7755575615628914e-17,
        2.7755575615628914e-17,
        1.0
      ],
      "translation": [
        -1.7763568394002505e-15,
        0.6282720565795898,
        3.552713678800501e-15
      ]
    },
    {
      "children": [
        209
      ],
      "name": "hood.R_0121_0119",
      "rotation": [
        -0.4020015597343445,
        0.3722270429134369,
        0.2594073712825775,
        0.7953298687934875
      ],
      "translation": [
        -0.8670944571495056,
        2.911581516265869,
        0.7793142795562744
      ]
    },
    {
      "children": [
        210
      ],
      "name": "hood.001.R_0122_0120",
      "rotation": [
        -0.025255871936678886,
        0.012740850448608398,
        -0.0034610345028340816,
        0.9995938539505005
      ],
      "translation": [
        2.467632293701172e-05,
        1.6452357769012451,
        4.172325134277344e-07
      ]
    },
    {
      "name": "hood.001.R_0122_end_0209",
      "rotation": [
        1.3877787807814457e-17,
        2.7755575615628914e-17,
        -1.3877787807814457e-17,
        1.0
      ],
      "translation": [
        -8.881784197001252e-16,
        1.6452202796936035,
        0.0
      ]
    },
    {
      "children": [
        212
      ],
      "name": "upperleg.L_0123_0121",
      "rotation": [
        0.9915615916252136,
        0.039898112416267395,
        0.039898186922073364,
        0.1167127788066864
      ],
      "translation": [
        1.3990013599395752,
        -0.2590141296386719,
        6.6067329385077755e-09
      ]
    },
    {
      "children": [
        213
      ],
      "name": "lowerleg.L_0124_0122",
      "rotation": [
        0.13658124208450317,
        1.826718154518403e-08,
        0.009833830408751965,
        0.9905800819396973
      ],
      "translation": [
        -3.822147846221924e-06,
        4.453424453735352,
        1.2323260307312012e-05
      ]
    },
    {
      "children": [
        214
      ],
      "name": "footcon.L_0125_0123",
      "rotation": [
        6.172119810798904e-07,
        -0.6917955875396729,
        0.7203735709190369,
        -0.049808938056230545
      ],
      "scale": [
        0.9999999403953552,
        0.9999996423721313,
        0.9999999403953552
      ],
      "translation": [
        -0.16777881979942322,
        5.169435024261475,
        1.550591230392456
      ]
    },
    {
      "name": "footcon.L_0125_end_0210",
      "rotation": [
        -3.308722450212111e-24,
        -1.545417009740137e-23,
        2.117582368135751e-22,
        1.0
      ],
      "translation": [
        0.0,
        5.399579048156738,
        0.0
      ]
    },
    {
      "children": [
        216
      ],
      "name": "upperleg.R_00_0124",
      "rotation": [
        0.9915615916252136,
        -0.039898112416267395,
        -0.039898186922073364,
        0.1167127788066864
      ],
      "translation": [
        -1.3990013599395752,
        -0.2590141296386719,
        6.6067329385077755e-09
      ]
    },
    {
      "children": [
        217
      ],
      "name": "lowerleg.R_01_0125",
      "rotation": [
        0.13658124208450317,
        -1.826718154518403e-08,
        -0.009833830408751965,
        0.9905800819396973
      ],
      "translation": [
        3.822147846221924e-06,
        4.453424453735352,
        1.2323260307312012e-05
      ]
    },
    {
      "children": [
        218
      ],
      "name": "footcon.R_0126_0126",
      "rotation": [
        -6.172119810798904e-07,
        -0.6917955875396729,
        0.7203735709190369,
        0.049808938056230545
      ],
      "scale": [
        0.9999999403953552,
        0.9999996423721313,
        0.9999999403953552
      ],
      "translation": [
        0.16777881979942322,
        5.169435024261475,
        1.550591230392456
      ]
    },
    {
      "name": "footcon.R_0126_end_0211",
      "rotation": [
        -3.308722450212111e-24,
        1.545417009740137e-23,
        -2.117582368135751e-22,
        1.0
      ],
      "translation": [
        0.0,
        5.399579048156738,
        0.0
      ]
    },
    {
      "matrix": [
        100.0,
        0.0,
        0.0,
        0.0,
        0.0,
        -8.269460797427742e-14,
        -100.00000000000202,
        0.0,
        0.0,
        100.00000000000202,
        -8.269460797427742e-14,
        0.0,
        0.0,
        9.53673418280232e-06,
        -2.467709196707357e-13,
        1.0
      ],
      "name": "Object_219"
    },
    {
      "mesh": 0,
      "name": "Object_220",
      "skin": 0
    }
  ],
  "samplers": [
    {
      "magFilter": 9729,
      "minFilter": 9987,
      "wrapS": 10497,
      "wrapT": 10497
    }
  ],
  "scene": 0,
  "scenes": [
    {
      "name": "Sketchfab_Scene",
      "nodes": [
        0
      ]
    }
  ],
  "skins": [
    {
      "inverseBindMatrices": 5,
      "joints": [
        6,
        7,
        8,
        9,
        10,
        11,
        12,
        13,
        14,
        15,
        16,
        17,
        18,
        19,
        20,
        21,
        22,
        23,
        24,
        25,
        26,
        27,
        28,
        29,
        30,
        31,
        32,
        33,
        34,
        35,
        36,
        37,
        38,
        39,
        40,
        41,
        42,
        43,
        44,
        45,
        46,
        47,
        48,
        49,
        50,
        51,
        52,
        53,
        54,
        55,
        56,
        57,
        58,
        59,
        60,
        61,
        62,
        63,
        64,
        65,
        66,
        67,
        68,
        69,
        70,
        71,
        72,
        73,
        74,
        75,
        76,
        77,
        78,
        79,
        80,
        81,
        82,
        83,
        84,
        85,
        86,
        87,
        88,
        89,
        90,
        91,
        92,
        93,
        94,
        95,
        96,
        97,
        98,
        99,
        100,
        101,
        102,
        103,
        104,
        105,
        106,
        107,
        108,
        109,
        110,
        111,
        112,
        113,
        114,
        115,
        116,
        117,
        118,
        119,
        120,
        121,
        122,
        123,
        124,
        125,
        126,
        127,
        128,
        129,
        130,
        131,
        132,
        133,
        134,
        135,
        136,
        137,
        138,
        139,
        140,
        141,
        142,
        143,
        144,
        145,
        146,
        147,
        148,
        149,
        150,
        151,
        152,
        153,
        154,
        155,
        156,
        157,
        158,
        159,
        160,
        161,
        162,
        163,
        164,
        165,
        166,
        167,
        168,
        169,
        170,
        171,
        172,
        173,
        174,
        175,
        176,
        177,
        178,
        179,
        180,
        181,
        182,
        183,
        184,
        185,
        186,
        187,
        188,
        189,
        190,
        191,
        192,
        193,
        194,
        195,
        196,
        197,
        198,
        199,
        200,
        201,
        202,
        203,
        204,
        205,
        206,
        207,
        208,
        209,
        210,
        211,
        212,
        213,
        214,
        215,
        216,
        217,
        218
      ],
      "skeleton": 6
    }
  ],
  "textures": [
    {
      "sampler": 0,
      "source": 0
    },
    {
      "sampler": 0,
      "source": 1
    },
    {
      "sampler": 0,
      "source": 2
    }
  ]
}
