{
  "accessors": [
    {
      "bufferView": 2,
      "componentType": 5126,
      "count": 1258,
      "max": [
        16.315855026245117,
        9.757949829101563,
        9.422030448913574
      ],
      "min": [
        4.703465938568115,
        2.053960084915161,
        2.613339900970459
      ],
      "type": "VEC3"
    },
    {
      "bufferView": 2,
      "byteOffset": 15096,
      "componentType": 5126,
      "count": 1258,
      "max": [
        1.0,
        1.0,
        1.0
      ],
      "min": [
        -1.0,
        -0.9905022382736206,
        -1.0
      ],
      "type": "VEC3"
    },
    {
      "bufferView": 1,
      "componentType": 5126,
      "count": 1258,
      "max": [
        -43.54859924316406,
        0.7262399792671204
      ],
      "min": [
        -49.606300354003906,
        0.008744129911065102
      ],
      "type": "VEC2"
    },
    {
      "bufferView": 0,
      "componentType": 5125,
      "count": 5568,
      "type": "SCALAR"
    },
    {
      "bufferView": 2,
      "byteOffset": 30192,
      "componentType": 5126,
      "count": 28,
      "max": [
        11.799956321716309,
        1.4987900257110596,
        4.672229766845703
      ],
      "min": [
        11.579456329345703,
        1.273300051689148,
        4.464469909667969
      ],
      "type": "VEC3"
    },
    {
      "bufferView": 2,
      "byteOffset": 30528,
      "componentType": 5126,
      "count": 28,
      "max": [
        -0.666096031665802,
        1.775290255513068e-14,
        -0.6597671508789063
      ],
      "min": [
        -0.7514702081680298,
        -6.0006007798828025e-15,
        -0.745866060256958
      ],
      "type": "VEC3"
    },
    {
      "bufferView": 1,
      "byteOffset": 10064,
      "componentType": 5126,
      "count": 28,
      "max": [
        9.492999919133438e-13,
        62.57659912109375
      ],
      "min": [
        -9.815640449523926,
        37.83290100097656
      ],
      "type": "VEC2"
    },
    {
      "bufferView": 0,
      "byteOffset": 22272,
      "componentType": 5125,
      "count": 72,
      "type": "SCALAR"
    },
    {
      "bufferView": 2,
      "byteOffset": 30864,
      "componentType": 5126,
      "count": 1470,
      "max": [
        12.10235595703125,
        6.197889804840088,
        9.669839859008789
      ],
      "min": [
        10.432206153869629,
        5.738369941711426,
        8.898079872131348
      ],
      "type": "VEC3"
    },
    {
      "bufferView": 2,
      "byteOffset": 48504,
      "componentType": 5126,
      "count": 1470,
      "max": [
        0.9964723587036133,
        0.9886606335639954,
        0.9977411031723022
      ],
      "min": [
        -0.9897329807281494,
        -0.7587803602218628,
        -0.9977411031723022
      ],
      "type": "VEC3"
    },
    {
      "bufferView": 1,
      "byteOffset": 10288,
      "componentType": 5126,
      "count": 1470,
      "max": [
        1.6747900247573853,
        2.476609945297241
      ],
      "min": [
        -1.6747499704360962,
        -1.6594899892807007
      ],
      "type": "VEC2"
    },
    {
      "bufferView": 0,
      "byteOffset": 22560,
      "componentType": 5125,
      "count": 2340,
      "type": "SCALAR"
    },
    {
      "bufferView": 2,
      "byteOffset": 66144,
      "componentType": 5126,
      "count": 9676,
      "max": [
        15.861856460571289,
        11.422900199890137,
        4.134920120239258
      ],
      "min": [
        5.15855598449707,
        2.424649953842163,
        0.6227869987487793
      ],
      "type": "VEC3"
    },
    {
      "bufferView": 2,
      "byteOffset": 182256,
      "componentType": 5126,
      "count": 9676,
      "max": [
        1.0,
        1.0,
        1.0
      ],
      "min": [
        -1.0,
        -1.0,
        -1.0
      ],
      "type": "VEC3"
    },
    {
      "bufferView": 1,
      "byteOffset": 22048,
      "componentType": 5126,
      "count": 9676,
      "max": [
        420.9049987792969,
        415.3169860839844
      ],
      "min": [
        -420.9049987792969,
        -405.843994140625
      ],
      "type": "VEC2"
    },
    {
      "bufferView": 0,
      "byteOffset": 31920,
      "componentType": 5125,
      "count": 15138,
      "type": "SCALAR"
    },
    {
      "bufferView": 2,
      "byteOffset": 298368,
      "componentType": 5126,
      "count": 1235,
      "max": [
        15.820856094360352,
        6.276820182800293,
        3.803879976272583
      ],
      "min": [
        10.061196327209473,
        2.465640068054199,
        0.8773009777069092
      ],
      "type": "VEC3"
    },
    {
      "bufferView": 2,
      "byteOffset": 313188,
      "componentType": 5126,
      "count": 1235,
      "max": [
        1.0,
        1.0,
        1.0
      ],
      "min": [
        -1.0,
        -1.0,
        -1.0
      ],
      "type": "VEC3"
    },
    {
      "bufferView": 1,
      "byteOffset": 99456,
      "componentType": 5126,
      "count": 1235,
      "max": [
        418.9440002441406,
        295.8340148925781
      ],
      "min": [
        -418.9440002441406,
        -281.37200927734375
      ],
      "type": "VEC2"
    },
    {
      "bufferView": 0,
      "byteOffset": 92472,
      "componentType": 5125,
      "count": 1980,
      "type": "SCALAR"
    },
    {
      "bufferView": 2,
      "byteOffset": 328008,
      "componentType": 5126,
      "count": 2129,
      "max": [
        16.216655731201172,
        11.637200355529785,
        4.681869983673096
      ],
      "min": [
        4.802685737609863,
        2.2216498851776123,
        0.3934819996356964
      ],
      "type": "VEC3"
    },
    {
      "bufferView": 2,
      "byteOffset": 353556,
      "componentType": 5126,
      "count": 2129,
      "max": [
        0.9984234571456909,
        0.9984234571456909,
        0.5325829982757568
      ],
      "min": [
        -0.9984234571456909,
        -0.9984234571456909,
        -0.4788650572299957
      ],
      "type": "VEC3"
    },
    {
      "bufferView": 1,
      "byteOffset": 109336,
      "componentType": 5126,
      "count": 2129,
      "max": [
        417.7659912109375,
        195.44200134277344
      ],
      "min": [
        -423.12701416015625,
        -154.4929962158203
      ],
      "type": "VEC2"
    },
    {
      "bufferView": 0,
      "byteOffset": 100392,
      "componentType": 5125,
      "count": 3873,
      "type": "SCALAR"
    },
    {
      "bufferView": 2,
      "byteOffset": 379104,
      "componentType": 5126,
      "count": 362,
      "max": [
        16.168455123901367,
        10.095499992370605,
        6.1092400550842285
      ],
      "min": [
        4.962376117706299,
        5.651599884033203,
        4.310669898986816
      ],
      "type": "VEC3"
    },
    {
      "bufferView": 2,
      "byteOffset": 383448,
      "componentType": 5126,
      "count": 362,
      "max": [
        1.0,
        1.0,
        1.0
      ],
      "min": [
        -1.0,
        -1.0,
        -1.0
      ],
      "type": "VEC3"
    },
    {
      "bufferView": 1,
      "byteOffset": 126368,
      "componentType": 5126,
      "count": 362,
      "max": [
        630.3460083007813,
        300.60198974609375
      ],
      "min": [
        -632.1690063476563,
        -312.9989929199219
      ],
      "type": "VEC2"
    },
    {
      "bufferView": 0,
      "byteOffset": 115884,
      "componentType": 5125,
      "count": 798,
      "type": "SCALAR"
    },
    {
      "bufferView": 2,
      "byteOffset": 387792,
      "componentType": 5126,
      "count": 5998,
      "max": [
        19.306955337524414,
        11.382800102233887,
        9.949749946594238
      ],
      "min": [
        1.7123860120773315,
        2.4596099853515625,
        1.691980075875987e-17
      ],
      "type": "VEC3"
    },
    {
      "bufferView": 2,
      "byteOffset": 459768,
      "componentType": 5126,
      "count": 5998,
      "max": [
        1.0,
        1.0,
        1.0
      ],
      "min": [
        -1.0,
        -1.0,
        -1.0
      ],
      "type": "VEC3"
    },
    {
      "bufferView": 1,
      "byteOffset": 129264,
      "componentType": 5126,
      "count": 5998,
      "max": [
        2346.360107421875,
        2333.8701171875
      ],
      "min": [
        -339.0199890136719,
        -129.50599670410156
      ],
      "type": "VEC2"
    },
    {
      "bufferView": 0,
      "byteOffset": 119076,
      "componentType": 5125,
      "count": 9084,
      "type": "SCALAR"
    },
    {
      "bufferView": 2,
      "byteOffset": 531744,
      "componentType": 5126,
      "count": 1714,
      "max": [
        16.849454879760742,
        12.28969955444336,
        7.812990188598633
      ],
      "min": [
        4.1502461433410645,
        3.1345601081848145,
        2.5732200145721436
      ],
      "type": "VEC3"
    },
    {
      "bufferView": 2,
      "byteOffset": 552312,
      "componentType": 5126,
      "count": 1714,
      "max": [
        0.9991201162338257,
        0.9934445023536682,
        0.9990962147712708
      ],
      "min": [
        -0.9973658919334412,
        -0.9991201162338257,
        -1.0
      ],
      "type": "VEC3"
    },
    {
      "bufferView": 1,
      "byteOffset": 177248,
      "componentType": 5126,
      "count": 1714,
      "max": [
        9.46697998046875,
        0.8432779908180237
      ],
      "min": [
        1.4885200262069702,
        -1.7263100147247314
      ],
      "type": "VEC2"
    },
    {
      "bufferView": 0,
      "byteOffset": 155412,
      "componentType": 5125,
      "count": 8460,
      "type": "SCALAR"
    },
    {
      "bufferView": 2,
      "byteOffset": 572880,
      "componentType": 5126,
      "count": 56,
      "max": [
        12.510355949401855,
        2.383960008621216,
        2.49003005027771
      ],
      "min": [
        8.515236854553223,
        1.8717800378799438,
        2.0638198852539063
      ],
      "type": "VEC3"
    },
    {
      "bufferView": 2,
      "byteOffset": 573552,
      "componentType": 5126,
      "count": 56,
      "max": [
        0.8536933064460754,
        0.8787015080451965,
        0.4607918858528137
      ],
      "min": [
        -0.8536933064460754,
        -0.8805896043777466,
        -0.8596169948577881
      ],
      "type": "VEC3"
    },
    {
      "bufferView": 1,
      "byteOffset": 190960,
      "componentType": 5126,
      "count": 56,
      "max": [
        0.984375,
        0.7592769861221313
      ],
      "min": [
        -0.015625,
        -0.23486299812793732
      ],
      "type": "VEC2"
    },
    {
      "bufferView": 0,
      "byteOffset": 189252,
      "componentType": 5125,
      "count": 120,
      "type": "SCALAR"
    },
    {
      "bufferView": 2,
      "byteOffset": 574224,
      "componentType": 5126,
      "count": 170,
      "max": [
        12.426956176757813,
        2.7257699966430664,
        2.1071701049804688
      ],
      "min": [
        8.598616600036621,
        2.0030100345611572,
        1.1334799528121948
      ],
      "type": "VEC3"
    },
    {
      "bufferView": 2,
      "byteOffset": 576264,
      "componentType": 5126,
      "count": 170,
      "max": [
        0.9994052648544312,
        0.9619746208190918,
        0.920508623123169
      ],
      "min": [
        -0.9994052648544312,
        -0.8793519735336304,
        -0.9674999713897705
      ],
      "type": "VEC3"
    },
    {
      "bufferView": 1,
      "byteOffset": 191408,
      "componentType": 5126,
      "count": 170,
      "max": [
        1.5145100355148315,
        1.8769500255584717
      ],
      "min": [
        -0.8975740075111389,
        -2.9845499992370605
      ],
      "type": "VEC2"
    },
    {
      "bufferView": 0,
      "byteOffset": 189732,
      "componentType": 5125,
      "count": 228,
      "type": "SCALAR"
    },
    {
      "bufferView": 2,
      "byteOffset": 578304,
      "componentType": 5126,
      "count": 756,
      "max": [
        11.914956092834473,
        2.036710023880005,
        3.420759916305542
      ],
      "min": [
        9.0842866897583,
        1.259909987449646,
        3.0555601119995117
      ],
      "type": "VEC3"
    },
    {
      "bufferView": 2,
      "byteOffset": 587376,
      "componentType": 5126,
      "count": 756,
      "max": [
        0.9826597571372986,
        0.8793255090713501,
        0.529591977596283
      ],
      "min": [
        -0.9826597571372986,
        -0.8793255090713501,
        -0.36615118384361267
      ],
      "type": "VEC3"
    },
    {
      "bufferView": 1,
      "byteOffset": 192768,
      "componentType": 5126,
      "count": 756,
      "max": [
        1.7909799814224243,
        3.8624401092529297
      ],
      "min": [
        -0.24451899528503418,
        -2.8608200550079346
      ],
      "type": "VEC2"
    },
    {
      "bufferView": 0,
      "byteOffset": 190644,
      "componentType": 5125,
      "count": 972,
      "type": "SCALAR"
    },
    {
      "bufferView": 2,
      "byteOffset": 596448,
      "componentType": 5126,
      "count": 354,
      "max": [
        20.61215591430664,
        12.786600112915039,
        1.785040020942688
      ],
      "min": [
        0.4727559983730316,
        0.0,
        0.0
      ],
      "type": "VEC3"
    },
    {
      "bufferView": 2,
      "byteOffset": 600696,
      "componentType": 5126,
      "count": 354,
      "max": [
        1.0,
        1.0,
        1.0
      ],
      "min": [
        -1.0,
        -1.0,
        -1.0
      ],
      "type": "VEC3"
    },
    {
      "bufferView": 1,
      "byteOffset": 198816,
      "componentType": 5126,
      "count": 354,
      "max": [
        0.996645987033844,
        0.9971489906311035
      ],
      "min": [
        -1.6093599528052105e-16,
        0.015952300280332565
      ],
      "type": "VEC2"
    },
    {
      "bufferView": 0,
      "byteOffset": 194532,
      "componentType": 5125,
      "count": 1038,
      "type": "SCALAR"
    },
    {
      "bufferView": 2,
      "byteOffset": 604944,
      "componentType": 5126,
      "count": 1500,
      "max": [
        20.22265625,
        12.32229995727539,
        7.893799781799316
      ],
      "min": [
        0.0,
        6.941229820251465,
        1.0971599817276
      ],
      "type": "VEC3"
    },
    {
      "bufferView": 2,
      "byteOffset": 622944,
      "componentType": 5126,
      "count": 1500,
      "max": [
        0.9081807136535645,
        0.9087550044059753,
        0.9999978542327881
      ],
      "min": [
        -0.9096452593803406,
        -0.9094637632369995,
        0.3591510057449341
      ],
      "type": "VEC3"
    },
    {
      "bufferView": 1,
      "byteOffset": 201648,
      "componentType": 5126,
      "count": 1500,
      "max": [
        59.531898498535156,
        27.35449981689453
      ],
      "min": [
        5.442580223083496,
        1.0063600540161133
      ],
      "type": "VEC2"
    },
    {
      "bufferView": 0,
      "byteOffset": 198684,
      "componentType": 5125,
      "count": 3840,
      "type": "SCALAR"
    },
    {
      "bufferView": 2,
      "byteOffset": 640944,
      "componentType": 5126,
      "count": 669,
      "max": [
        16.216655731201172,
        11.637200355529785,
        4.271170139312744
      ],
      "min": [
        4.802685737609863,
        2.2216498851776123,
        0.3934819996356964
      ],
      "type": "VEC3"
    },
    {
      "bufferView": 2,
      "byteOffset": 648972,
      "componentType": 5126,
      "count": 669,
      "max": [
        1.0,
        1.0,
        1.0
      ],
      "min": [
        -1.0,
        -1.0,
        -1.0
      ],
      "type": "VEC3"
    },
    {
      "bufferView": 1,
      "byteOffset": 213648,
      "componentType": 5126,
      "count": 669,
      "max": [
        453.27398681640625,
        407.55499267578125
      ],
      "min": [
        -453.27398681640625,
        -358.8489990234375
      ],
      "type": "VEC2"
    },
    {
      "bufferView": 0,
      "byteOffset": 214044,
      "componentType": 5125,
      "count": 1245,
      "type": "SCALAR"
    },
    {
      "bufferView": 2,
      "byteOffset": 657000,
      "componentType": 5126,
      "count": 42,
      "max": [
        19.306955337524414,
        11.382800102233887,
        5.497280120849609
      ],
      "min": [
        1.7123860120773315,
        8.593509674072266,
        1.691980075875987e-17
      ],
      "type": "VEC3"
    },
    {
      "bufferView": 2,
      "byteOffset": 657504,
      "componentType": 5126,
      "count": 42,
      "max": [
        0.9902158975601196,
        0.9927030205726624,
        0.9997507333755493
      ],
      "min": [
        -0.9825142621994019,
        -0.9905094504356384,
        0.09337078034877777
      ],
      "type": "VEC3"
    },
    {
      "bufferView": 1,
      "byteOffset": 219000,
      "componentType": 5126,
      "count": 42,
      "max": [
        0.6000000238418579,
        1.0
      ],
      "min": [
        -0.0993674024939537,
        0.5018979907035828
      ],
      "type": "VEC2"
    },
    {
      "bufferView": 0,
      "byteOffset": 219024,
      "componentType": 5125,
      "count": 114,
      "type": "SCALAR"
    },
    {
      "bufferView": 2,
      "byteOffset": 658008,
      "componentType": 5126,
      "count": 95,
      "max": [
        14.170656204223633,
        8.918230056762695,
        7.28685998916626
      ],
      "min": [
        6.851565837860107,
        1.190019965171814,
        0.1900169998407364
      ],
      "type": "VEC3"
    },
    {
      "bufferView": 2,
      "byteOffset": 659148,
      "componentType": 5126,
      "count": 95,
      "max": [
        0.9700987339019775,
        0.9701436161994934,
        1.0
      ],
      "min": [
        -0.9700987339019775,
        -1.0,
        3.259079702058108e-17
      ],
      "type": "VEC3"
    },
    {
      "bufferView": 1,
      "byteOffset": 219336,
      "componentType": 5126,
      "count": 95,
      "max": [
        0.25,
        0.9556580185890198
      ],
      "min": [
        -4.715859889984131,
        -0.015730200335383415
      ],
      "type": "VEC2"
    },
    {
      "bufferView": 0,
      "byteOffset": 219480,
      "componentType": 5125,
      "count": 273,
      "type": "SCALAR"
    },
    {
      "bufferView": 2,
      "byteOffset": 660288,
      "componentType": 5126,
      "count": 368,
      "max": [
        14.170656204223633,
        8.918230056762695,
        7.6066999435424805
      ],
      "min": [
        6.851565837860107,
        2.9410998821258545,
        0.3934819996356964
      ],
      "type": "VEC3"
    },
    {
      "bufferView": 2,
      "byteOffset": 664704,
      "componentType": 5126,
      "count": 368,
      "max": [
        0.9729748964309692,
        0.9729748964309692,
        1.0
      ],
      "min": [
        -0.9729748964309692,
        -0.9729748964309692,
        -1.0
      ],
      "type": "VEC3"
    },
    {
      "bufferView": 1,
      "byteOffset": 220096,
      "componentType": 5126,
      "count": 368,
      "max": [
        1.0288100242614746,
        4.6282501220703125
      ],
      "min": [
        -6.2548298835754395,
        0.162663996219635
      ],
      "type": "VEC2"
    },
    {
      "bufferView": 0,
      "byteOffset": 220572,
      "componentType": 5125,
      "count": 912,
      "type": "SCALAR"
    },
    {
      "bufferView": 2,
      "byteOffset": 669120,
      "componentType": 5126,
      "count": 7723,
      "max": [
        16.620756149291992,
        11.96030044555664,
        4.714449882507324
      ],
      "min": [
        4.38852596282959,
        1.273300051689148,
        0.25971299409866333
      ],
      "type": "VEC3"
    },
    {
      "bufferView": 2,
      "byteOffset": 761796,
      "componentType": 5126,
      "count": 7723,
      "max": [
        1.0,
        1.0,
        1.0
      ],
      "min": [
        -1.0,
        -1.0,
        -1.0
      ],
      "type": "VEC3"
    },
    {
      "bufferView": 1,
      "byteOffset": 223040,
      "componentType": 5126,
      "count": 7723,
      "max": [
        1.6915199756622314,
        16.484399795532227
      ],
      "min": [
        -5.973020076751709,
        -3.8172800540924072
      ],
      "type": "VEC2"
    },
    {
      "bufferView": 0,
      "byteOffset": 224220,
      "componentType": 5125,
      "count": 11190,
      "type": "SCALAR"
    },
    {
      "bufferView": 2,
      "byteOffset": 854472,
      "componentType": 5126,
      "count": 2069,
      "max": [
        17.20215606689453,
        12.624500274658203,
        5.172540187835693
      ],
      "min": [
        3.8198459148406982,
        1.0267599821090698,
        0.1900169998407364
      ],
      "type": "VEC3"
    },
    {
      "bufferView": 2,
      "byteOffset": 879300,
      "componentType": 5126,
      "count": 2069,
      "max": [
        1.0,
        1.0,
        1.0
      ],
      "min": [
        -1.0,
        -1.0,
        -1.0
      ],
      "type": "VEC3"
    },
    {
      "bufferView": 1,
      "byteOffset": 284824,
      "componentType": 5126,
      "count": 2069,
      "max": [
        328.32000732421875,
        312.4549865722656
      ],
      "min": [
        -334.1180114746094,
        -315.44000244140625
      ],
      "type": "VEC2"
    },
    {
      "bufferView": 0,
      "byteOffset": 268980,
      "componentType": 5125,
      "count": 3765,
      "type": "SCALAR"
    },
    {
      "bufferView": 2,
      "byteOffset": 904128,
      "componentType": 5126,
      "count": 1474,
      "max": [
        16.19035530090332,
        6.2489399909973145,
        6.440529823303223
      ],
      "min": [
        15.308956146240234,
        5.38021993637085,
        5.3524298667907715
      ],
      "type": "VEC3"
    },
    {
      "bufferView": 2,
      "byteOffset": 921816,
      "componentType": 5126,
      "count": 1474,
      "max": [
        0.9999434947967529,
        0.9999343752861023,
        0.3793761432170868
      ],
      "min": [
        -0.998234212398529,
        -0.9998834729194641,
        -0.9999988675117493
      ],
      "type": "VEC3"
    },
    {
      "bufferView": 1,
      "byteOffset": 301376,
      "componentType": 5126,
      "count": 1474,
      "max": [
        0.30846700072288513,
        0.8374059796333313
      ],
      "min": [
        0.25629299879074097,
        0.677003026008606
      ],
      "type": "VEC2"
    },
    {
      "bufferView": 0,
      "byteOffset": 284040,
      "componentType": 5125,
      "count": 8439,
      "type": "SCALAR"
    },
    {
      "bufferView": 2,
      "byteOffset": 939504,
      "componentType": 5126,
      "count": 1473,
      "max": [
        11.058856010437012,
        10.128399848937988,
        5.3228302001953125
      ],
      "min": [
        9.755796432495117,
        8.806349754333496,
        3.6906800270080566
      ],
      "type": "VEC3"
    },
    {
      "bufferView": 2,
      "byteOffset": 957180,
      "componentType": 5126,
      "count": 1473,
      "max": [
        0.9998834729194641,
        0.9999434947967529,
        0.3793761432170868
      ],
      "min": [
        -0.9999343752861023,
        -0.998234212398529,
        -0.9999988675117493
      ],
      "type": "VEC3"
    },
    {
      "bufferView": 1,
      "byteOffset": 313168,
      "componentType": 5126,
      "count": 1473,
      "max": [
        0.30846700072288513,
        0.8374059796333313
      ],
      "min": [
        0.25629299879074097,
        0.677003026008606
      ],
      "type": "VEC2"
    },
    {
      "bufferView": 0,
      "byteOffset": 317796,
      "componentType": 5125,
      "count": 8445,
      "type": "SCALAR"
    },
    {
      "bufferView": 2,
      "byteOffset": 974856,
      "componentType": 5126,
      "count": 1486,
      "max": [
        5.8218159675598145,
        6.2489399909973145,
        6.440529823303223
      ],
      "min": [
        4.940435886383057,
        5.38021993637085,
        5.3524298667907715
      ],
      "type": "VEC3"
    },
    {
      "bufferView": 2,
      "byteOffset": 992688,
      "componentType": 5126,
      "count": 1486,
      "max": [
        0.998234212398529,
        0.9999343752861023,
        0.3793761432170868
      ],
      "min": [
        -0.9999434947967529,
        -0.9998834729194641,
        -0.9999988675117493
      ],
      "type": "VEC3"
    },
    {
      "bufferView": 1,
      "byteOffset": 324952,
      "componentType": 5126,
      "count": 1486,
      "max": [
        0.30846700072288513,
        0.8374059796333313
      ],
      "min": [
        0.25629299879074097,
        0.677003026008606
      ],
      "type": "VEC2"
    },
    {
      "bufferView": 0,
      "byteOffset": 351576,
      "componentType": 5125,
      "count": 8454,
      "type": "SCALAR"
    }
  ],
  "asset": {
    "extras": {
      "author": "farhad.Guli (https://sketchfab.com/farhad.Guli)",
      "license": "CC-BY-4.0 (http://creativecommons.org/licenses/by/4.0/)",
      "source": "https://sketchfab.com/3d-models/smurf-castle-db99c62f73e04147967cc6e79a9deae7",
      "title": "Smurf Castle"
    },
    "generator": "Sketchfab-12.66.0",
    "version": "2.0"
  },
  "bufferViews": [
    {
      "buffer": 0,
      "byteLength": 385392,
      "name": "floatBufferViews",
      "target": 34963
    },
    {
      "buffer": 0,
      "byteLength": 336840,
      "byteOffset": 385392,
      "byteStride": 8,
      "name": "floatBufferViews",
      "target": 34962
    },
    {
      "buffer": 0,
      "byteLength": 1010520,
      "byteOffset": 722232,
      "byteStride": 12,
      "name": "floatBufferViews",
      "target": 34962
    }
  ],
  "buffers": [
    {
      "byteLength": 1732752,
      "uri": "scene.bin"
    }
  ],
  "images": [
    {
      "uri": "textures/Material2_baseColor.jpeg"
    },
    {
      "uri": "textures/Material8_baseColor.jpeg"
    },
    {
      "uri": "textures/Shape_168_baseColor.png"
    },
    {
      "uri": "textures/Shape_169_baseColor.png"
    },
    {
      "uri": "textures/Shape_62_baseColor.png"
    },
    {
      "uri": "textures/Untitled_3_baseColor.jpeg"
    },
    {
      "uri": "textures/material_baseColor.png"
    },
    {
      "uri": "textures/auto_7_baseColor.png"
    },
    {
      "uri": "textures/skorstentexture1_baseColor.jpeg"
    },
    {
      "uri": "textures/skorstentexture_6_baseColor.jpeg"
    },
    {
      "uri": "textures/smurfette_face_1_baseColor.jpeg"
    },
    {
      "uri": "textures/surface_3_baseColor.png"
    },
    {
      "uri": "textures/wall_baseColor.jpeg"
    }
  ],
  "materials": [
    {
      "doubleSided": true,
      "name": "Color_007",
      "pbrMetallicRoughness": {
        "baseColorFactor": [
          0.227451,
          0.227451,
          0.227451,
          1.0
        ],
        "metallicFactor": 0.0,
        "roughnessFactor": 0.6
      }
    },
    {
      "doubleSided": true,
      "name": "Color_C10",
      "pbrMetallicRoughness": {
        "baseColorFactor": [
          0.8,
          0.717647,
          0.639216,
          1.0
        ],
        "metallicFactor": 0.0,
        "roughnessFactor": 0.6
      }
    },
    {
      "doubleSided": true,
      "name": "Color_D04",
      "pbrMetallicRoughness": {
        "baseColorFactor": [
          1.0,
          0.898039,
          0.6,
          1.0
        ],
        "metallicFactor": 0.0,
        "roughnessFactor": 0.6
      }
    },
    {
      "doubleSided": true,
      "name": "FrontColor",
      "pbrMetallicRoughness": {
        "metallicFactor": 0.0,
        "roughnessFactor": 0.6
      }
    },
    {
      "doubleSided": true,
      "name": "Material2",
      "pbrMetallicRoughness": {
        "baseColorTexture": {
          "index": 0
        },
        "metallicFactor": 0.0,
        "roughnessFactor": 0.6
      }
    },
    {
      "doubleSided": true,
      "name": "Material8",
      "pbrMetallicRoughness": {
        "baseColorTexture": {
          "index": 1
        },
        "metallicFactor": 0.0,
        "roughnessFactor": 0.6
      }
    },
    {
      "doubleSided": true,
      "name": "Shape_168",
      "pbrMetallicRoughness": {
        "baseColorTexture": {
          "index": 2
        },
        "metallicFactor": 0.0,
        "roughnessFactor": 0.6
      }
    },
    {
      "doubleSided": true,
      "name": "Shape_169",
      "pbrMetallicRoughness": {
        "baseColorTexture": {
          "index": 3
        },
        "metallicFactor": 0.0,
        "roughnessFactor": 0.6
      }
    },
    {
      "doubleSided": true,
      "name": "Shape_62",
      "pbrMetallicRoughness": {
        "baseColorTexture": {
          "index": 4
        },
        "metallicFactor": 0.0,
        "roughnessFactor": 0.6
      }
    },
    {
      "doubleSided": true,
      "name": "Untitled_3",
      "pbrMetallicRoughness": {
        "baseColorTexture": {
          "index": 5
        },
        "metallicFactor": 0.0,
        "roughnessFactor": 0.6
      }
    },
    {
      "doubleSided": true,
      "name": "Wood_Cherry_Original",
      "pbrMetallicRoughness": {
        "baseColorFactor": [
          0.596078,
          0.337255,
          0.164706,
          1.0
        ],
        "metallicFactor": 0.0,
        "roughnessFactor": 0.6
      }
    },
    {
      "doubleSided": true,
      "name": "material",
      "pbrMetallicRoughness": {
        "baseColorTexture": {
          "index": 6
        },
        "metallicFactor": 0.0,
        "roughnessFactor": 0.6
      }
    },
    {
      "doubleSided": true,
      "name": "auto_6",
      "pbrMetallicRoughness": {
        "baseColorFactor": [
          0.8,
          0.8,
          0.8,
          1.0
        ],
        "metallicFactor": 0.0,
        "roughnessFactor": 0.6
      }
    },
    {
      "doubleSided": true,
      "name": "auto_7",
      "pbrMetallicRoughness": {
        "baseColorTexture": {
          "index": 7
        },
        "metallicFactor": 0.0,
        "roughnessFactor": 0.6
      }
    },
    {
      "doubleSided": true,
      "name": "skorstentexture1",
      "pbrMetallicRoughness": {
        "baseColorTexture": {
          "index": 8
        },
        "metallicFactor": 0.0,
        "roughnessFactor": 0.6
      }
    },
    {
      "doubleSided": true,
      "name": "skorstentexture_6",
      "pbrMetallicRoughness": {
        "baseColorTexture": {
          "index": 9
        },
        "metallicFactor": 0.0,
        "roughnessFactor": 0.6
      }
    },
    {
      "doubleSided": true,
      "name": "smurfette_face_1",
      "pbrMetallicRoughness": {
        "baseColorTexture": {
          "index": 10
        },
        "metallicFactor": 0.0,
        "roughnessFactor": 0.6
      }
    },
    {
      "doubleSided": true,
      "name": "surface_3",
      "pbrMetallicRoughness": {
        "baseColorTexture": {
          "index": 11
        },
        "metallicFactor": 0.0,
        "roughnessFactor": 0.6
      }
    },
    {
      "doubleSided": true,
      "name": "wall",
      "pbrMetallicRoughness": {
        "baseColorTexture": {
          "index": 12
        },
        "metallicFactor": 0.0,
        "roughnessFactor": 0.6
      }
    }
  ],
  "meshes": [
    {
      "name": "Object_0",
      "primitives": [
        {
          "attributes": {
            "NORMAL": 1,
            "POSITION": 0,
            "TEXCOORD_0": 2
          },
          "indices": 3,
          "material": 4,
          "mode": 4
        }
      ]
    },
    {
      "name": "Object_1",
      "primitives": [
        {
          "attributes": {
            "NORMAL": 5,
            "POSITION": 4,
            "TEXCOORD_0": 6
          },
          "indices": 7,
          "material": 10,
          "mode": 4
        }
      ]
    },
    {
      "name": "Object_2",
      "primitives": [
        {
          "attributes": {
            "NORMAL": 9,
            "POSITION": 8,
            "TEXCOORD_0": 10
          },
          "indices": 11,
          "material": 16,
          "mode": 4
        }
      ]
    },
    {
      "name": "Object_3",
      "primitives": [
        {
          "attributes": {
            "NORMAL": 13,
            "POSITION": 12,
            "TEXCOORD_0": 14
          },
          "indices": 15,
          "material": 0,
          "mode": 4
        }
      ]
    },
    {
      "name": "Object_4",
      "primitives": [
        {
          "attributes": {
            "NORMAL": 17,
            "POSITION": 16,
            "TEXCOORD_0": 18
          },
          "indices": 19,
          "material": 0,
          "mode": 4
        }
      ]
    },
    {
      "name": "Object_5",
      "primitives": [
        {
          "attributes": {
            "NORMAL": 21,
            "POSITION": 20,
            "TEXCOORD_0": 22
          },
          "indices": 23,
          "material": 1,
          "mode": 4
        }
      ]
    },
    {
      "name": "Object_6",
      "primitives": [
        {
          "attributes": {
            "NORMAL": 25,
            "POSITION": 24,
            "TEXCOORD_0": 26
          },
          "indices": 27,
          "material": 2,
          "mode": 4
        }
      ]
    },
    {
      "name": "Object_7",
      "primitives": [
        {
          "attributes": {
            "NORMAL": 29,
            "POSITION": 28,
            "TEXCOORD_0": 30
          },
          "indices": 31,
          "material": 3,
          "mode": 4
        }
      ]
    },
    {
      "name": "Object_8",
      "primitives": [
        {
          "attributes": {
            "NORMAL": 33,
            "POSITION": 32,
            "TEXCOORD_0": 34
          },
          "indices": 35,
          "material": 5,
          "mode": 4
        }
      ]
    },
    {
      "name": "Object_9",
      "primitives": [
        {
          "attributes": {
            "NORMAL": 37,
            "POSITION": 36,
            "TEXCOORD_0": 38
          },
          "indices": 39,
          "material": 6,
          "mode": 4
        }
      ]
    },
    {
      "name": "Object_10",
      "primitives": [
        {
          "attributes": {
            "NORMAL": 41,
            "POSITION": 40,
            "TEXCOORD_0": 42
          },
          "indices": 43,
          "material": 7,
          "mode": 4
        }
      ]
    },
    {
      "name": "Object_11",
      "primitives": [
        {
          "attributes": {
            "NORMAL": 45,
            "POSITION": 44,
            "TEXCOORD_0": 46
          },
          "indices": 47,
          "material": 8,
          "mode": 4
        }
      ]
    },
    {
      "name": "Object_12",
      "primitives": [
        {
          "attributes": {
            "NORMAL": 49,
            "POSITION": 48,
            "TEXCOORD_0": 50
          },
          "indices": 51,
          "material": 9,
          "mode": 4
        }
      ]
    },
    {
      "name": "Object_13",
      "primitives": [
        {
          "attributes": {
            "NORMAL": 53,
            "POSITION": 52,
            "TEXCOORD_0": 54
          },
          "indices": 55,
          "material": 11,
          "mode": 4
        }
      ]
    },
    {
      "name": "Object_14",
      "primitives": [
        {
          "attributes": {
            "NORMAL": 57,
            "POSITION": 56,
            "TEXCOORD_0": 58
          },
          "indices": 59,
          "material": 12,
          "mode": 4
        }
      ]
    },
    {
      "name": "Object_15",
      "primitives": [
        {
          "attributes": {
            "NORMAL": 61,
            "POSITION": 60,
            "TEXCOORD_0": 62
          },
          "indices": 63,
          "material": 13,
          "mode": 4
        }
      ]
    },
    {
      "name": "Object_16",
      "primitives": [
        {
          "attributes": {
            "NORMAL": 65,
            "POSITION": 64,
            "TEXCOORD_0": 66
          },
          "indices": 67,
          "material": 14,
          "mode": 4
        }
      ]
    },
    {
      "name": "Object_17",
      "primitives": [
        {
          "attributes": {
            "NORMAL": 69,
            "POSITION": 68,
            "TEXCOORD_0": 70
          },
          "indices": 71,
          "material": 15,
          "mode": 4
        }
      ]
    },
    {
      "name": "Object_18",
      "primitives": [
        {
          "attributes": {
            "NORMAL": 73,
            "POSITION": 72,
            "TEXCOORD_0": 74
          },
          "indices": 75,
          "material": 17,
          "mode": 4
        }
      ]
    },
    {
      "name": "Object_19",
      "primitives": [
        {
          "attributes": {
            "NORMAL": 77,
            "POSITION": 76,
            "TEXCOORD_0": 78
          },
          "indices": 79,
          "material": 17,
          "mode": 4
        }
      ]
    },
    {
      "name": "Object_20",
      "primitives": [
        {
          "attributes": {
            "NORMAL": 81,
            "POSITION": 80,
            "TEXCOORD_0": 82
          },
          "indices": 83,
          "material": 18,
          "mode": 4
        }
      ]
    },
    {
      "name": "Object_21",
      "primitives": [
        {
          "attributes": {
            "NORMAL": 85,
            "POSITION": 84,
            "TEXCOORD_0": 86
          },
          "indices": 87,
          "material": 18,
          "mode": 4
        }
      ]
    },
    {
      "name": "Object_22",
      "primitives": [
        {
          "attributes": {
            "NORMAL": 89,
            "POSITION": 88,
            "TEXCOORD_0": 90
          },
          "indices": 91,
          "material": 18,
          "mode": 4
        }
      ]
    }
  ],
  "nodes": [
    {
      "children": [
        1
      ],
      "matrix": [
        1.0,
        0.0,
        0.0,
        0.0,
        0.0,
        2.220446049250313e-16,
        -1.0,
        0.0,
        0.0,
        1.0,
        2.220446049250313e-16,
        0.0,
        0.0,
        0.0,
        0.0,
        1.0
      ],
      "name": "Sketchfab_model"
    },
    {
      "children": [
        2
      ],
      "matrix": [
        1.0,
        0.0,
        0.0,
        0.0,
        0.0,
        1.0,
        0.0,
        0.0,
        0.0,
        0.0,
        1.0,
        0.0,
        -0.4727559983730316,
        0.0,
        0.0,
        1.0
      ],
      "name": "Schlumpfburg.obj.cleaner.gles"
    },
    {
      "children": [
        3,
        4,
        5,
        6,
        7,
        8,
        9,
        10,
        11,
        12,
        13,
        14,
        15,
        16,
        17,
        18,
        19,
        20,
        21,
        22,
        23,
        24,
        25
      ],
      "name": "Object_2"
    },
    {
      "mesh": 0,
      "name": "Object_3"
    },
    {
      "mesh": 1,
      "name": "Object_4"
    },
    {
      "mesh": 2,
      "name": "Object_5"
    },
    {
      "mesh": 3,
      "name": "Object_6"
    },
    {
      "mesh": 4,
      "name": "Object_7"
    },
    {
      "mesh": 5,
      "name": "Object_8"
    },
    {
      "mesh": 6,
      "name": "Object_9"
    },
    {
      "mesh": 7,
      "name": "Object_10"
    },
    {
      "mesh": 8,
      "name": "Object_11"
    },
    {
      "mesh": 9,
      "name": "Object_12"
    },
    {
      "mesh": 10,
      "name": "Object_13"
    },
    {
      "mesh": 11,
      "name": "Object_14"
    },
    {
      "mesh": 12,
      "name": "Object_15"
    },
    {
      "mesh": 13,
      "name": "Object_16"
    },
    {
      "mesh": 14,
      "name": "Object_17"
    },
    {
      "mesh": 15,
      "name": "Object_18"
    },
    {
      "mesh": 16,
      "name": "Object_19"
    },
    {
      "mesh": 17,
      "name": "Object_20"
    },
    {
      "mesh": 18,
      "name": "Object_21"
    },
    {
      "mesh": 19,
      "name": "Object_22"
    },
    {
      "mesh": 20,
      "name": "Object_23"
    },
    {
      "mesh": 21,
      "name": "Object_24"
    },
    {
      "mesh": 22,
      "name": "Object_25"
    }
  ],
  "samplers": [
    {
      "magFilter": 9729,
      "minFilter": 9987,
      "wrapS": 10497,
      "wrapT": 10497
    }
  ],
  "scene": 0,
  "scenes": [
    {
      "name": "Sketchfab_Scene",
      "nodes": [
        0
      ]
    }
  ],
  "textures": [
    {
      "sampler": 0,
      "source": 0
    },
    {
      "sampler": 0,
      "source": 1
    },
    {
      "sampler": 0,
      "source": 2
    },
    {
      "sampler": 0,
      "source": 3
    },
    {
      "sampler": 0,
      "source": 4
    },
    {
      "sampler": 0,
      "source": 5
    },
    {
      "sampler": 0,
      "source": 6
    },
    {
      "sampler": 0,
      "source": 7
    },
    {
      "sampler": 0,
      "source": 8
    },
    {
      "sampler": 0,
      "source": 9
    },
    {
      "sampler": 0,
      "source": 10
    },
    {
      "sampler": 0,
      "source": 11
    },
    {
      "sampler": 0,
      "source": 12
    }
  ]
}
